<mxfile host="app.diagrams.net" agent="Mozilla/5.0 (Windows NT 10.0; Win64; x64) AppleWebKit/537.36 (KHTML, like Gecko) Chrome/129.0.0.0 Safari/537.36" version="24.7.17">
  <diagram name="PÃ¡gina-1" id="m2waK7sC8ocqV-3skpwB">
    <mxGraphModel dx="2440" dy="908" grid="1" gridSize="10" guides="1" tooltips="1" connect="1" arrows="1" fold="1" page="1" pageScale="1" pageWidth="827" pageHeight="1169" math="0" shadow="0">
      <root>
        <mxCell id="0" />
        <mxCell id="1" parent="0" />
        <mxCell id="zQAnH2hgNNJ8GHYaH6ZK-1" value="CICLO DE VIDA DEL DESARROLLO DE SOFTWARE (SDLC)" style="rounded=0;whiteSpace=wrap;html=1;" vertex="1" parent="1">
          <mxGeometry x="500" y="97" width="470" height="60" as="geometry" />
        </mxCell>
        <mxCell id="zQAnH2hgNNJ8GHYaH6ZK-3" value="Planning" style="rounded=1;whiteSpace=wrap;html=1;" vertex="1" parent="1">
          <mxGeometry x="500" y="170" width="120" height="60" as="geometry" />
        </mxCell>
        <mxCell id="zQAnH2hgNNJ8GHYaH6ZK-4" value="Requirements" style="rounded=1;whiteSpace=wrap;html=1;" vertex="1" parent="1">
          <mxGeometry x="500" y="240" width="120" height="60" as="geometry" />
        </mxCell>
        <mxCell id="zQAnH2hgNNJ8GHYaH6ZK-5" value="Design" style="rounded=1;whiteSpace=wrap;html=1;" vertex="1" parent="1">
          <mxGeometry x="500" y="310" width="120" height="60" as="geometry" />
        </mxCell>
        <mxCell id="zQAnH2hgNNJ8GHYaH6ZK-6" value="Development" style="rounded=1;whiteSpace=wrap;html=1;" vertex="1" parent="1">
          <mxGeometry x="500" y="379" width="120" height="60" as="geometry" />
        </mxCell>
        <mxCell id="zQAnH2hgNNJ8GHYaH6ZK-7" value="Testing" style="rounded=1;whiteSpace=wrap;html=1;" vertex="1" parent="1">
          <mxGeometry x="500" y="448" width="120" height="60" as="geometry" />
        </mxCell>
        <mxCell id="zQAnH2hgNNJ8GHYaH6ZK-8" value="Deployment" style="rounded=1;whiteSpace=wrap;html=1;" vertex="1" parent="1">
          <mxGeometry x="500" y="518" width="120" height="60" as="geometry" />
        </mxCell>
        <mxCell id="zQAnH2hgNNJ8GHYaH6ZK-9" value="Maintenance" style="rounded=1;whiteSpace=wrap;html=1;" vertex="1" parent="1">
          <mxGeometry x="500" y="587" width="120" height="60" as="geometry" />
        </mxCell>
        <mxCell id="zQAnH2hgNNJ8GHYaH6ZK-10" value="https://www.normaiso27001.es/" style="shape=image;verticalLabelPosition=bottom;labelBackgroundColor=default;verticalAlign=top;aspect=fixed;imageAspect=0;image=https://globalt4e.com/wp-content/uploads/2021/01/ISO-27001.jpg;" vertex="1" parent="1">
          <mxGeometry x="1200" y="40.88" width="291" height="218.25" as="geometry" />
        </mxCell>
        <mxCell id="zQAnH2hgNNJ8GHYaH6ZK-12" value="https://choosealicense.com/licenses/mit/" style="shape=image;verticalLabelPosition=bottom;labelBackgroundColor=default;verticalAlign=top;aspect=fixed;imageAspect=0;image=https://blog.containerize.com/es/top-5-most-popular-osi-approved-open-source-licenses-of-2021/images/best-top-open-source-licenses.png;" vertex="1" parent="1">
          <mxGeometry x="1510" y="42" width="359.16" height="188" as="geometry" />
        </mxCell>
        <mxCell id="zQAnH2hgNNJ8GHYaH6ZK-13" value="carta contrato" style="shape=image;verticalLabelPosition=bottom;labelBackgroundColor=default;verticalAlign=top;aspect=fixed;imageAspect=0;image=data:image/jpeg,/9j/4AAQSkZJRgABAQAAAQABAAD/2wCEAAkGBxMSEhMSEhIVFhUVFRIXGBgWFhUXGBgVFRcWFhUZExcYHiggGBolHxYTITEhJykrLy8vFx8zODMtNzQtLisBCgoKDg0OGxAQGyslICUtLS0tKy0tKy0vLS0rMC0tLS0tLS0rLS0tLS0tLS0tLS0tLS0tLS0tLS0tLS0tLS0tLf/AABEIAOEA4QMBEQACEQEDEQH/xAAcAAEAAwEBAQEBAAAAAAAAAAAAAwQFBgIHAQj/xABHEAABAwEDBgkHCQgCAwAAAAABAAIDEQQSIQUGMUFRcRMUIjJTYYGRoVKTscHR0uEWNEJjcoKSo7MVIzNiorLC8AdDJOLx/8QAGgEBAAIDAQAAAAAAAAAAAAAAAAEDAgQFBv/EADQRAAIBAgMECAcAAgMBAAAAAAABAgMRBCExBRJBYRMVM1FSgaHhIjJCcZHB8BTxYrHRI//aAAwDAQACEQMRAD8A11648mEAQBAEAQBAEAQBAEAQBAEAQBAEAQBAEAQBAEAQBAEAQBAEAQBAEAQBAEAQBAEAQBAEAQBAEAQBAEAQBAEAQBAEAQBAEAQBAEAQBAEAQF7I+TuMScGHXeSTWldFNVRtWvia/Qw3rXL8PR6ae7exu/Is9OPNn3lodarw+vsb3Vb8Xp7j5Fnpx5s+8nWq8Pr7Dqt+L09x8iz0482feTrVeH19h1W/F6e4+RZ6cebPvJ1qvD6+w6rfi9PcfIs9OPNn3k61Xh9fYdVvxenuPkWenHmz7ydarw+vsOq34vT3HyLPTjzZ95OtV4fX2HVb8Xp7j5Fnpx5s+8nWq8Pr7Dqt+L09x8iz0482feTrVeH19h1W/F6e4+RZ6cebPvJ1qvD6+w6rfi9PcfIs9OPNn3k61Xh9fYdVvxenuPkWenHmz7yda/8AH19h1W/F6e5KzMxv0pnHc0D0krB7UnwiixbMhxkydmaEI0ucd59lFTLaNd6WXkWx2dQWt/yTszYgH0R23j6SqpYzEP6i2ODw6+kpW3NC+8uZI1gNOSGYCgp5S2aO0XCG7JXffc1q2zlOe9F2XdYzsq5sGCJ0plDrt3C5StSBpvda26G0Olmobtr8/Y1a+AdKDnvX8jn10TnhAEAQBAEAQBAEAQH60VwGKxcktSUm9DoMzoHi0VLHAXHYlpA0jWudtGpB0rJq9zobPpzVW7TtZncriHbCAIAgCAIAgCAIAgCAIAgCAIAgMbO8/wDiSb4v1GLawXbxNTG9hI+fL0h54IAgCAIAgCAIAgCA6zNh9YabHOHoPrXndpq1fyR6DZjvR82b1h53YVoR1N+WhoLMwCAIAgCAIAgCAIAgCAIAgCAIAgMXPD5pJvi/UYtrBdvE1cb2Ej5+vSHnQgCAIAgCAIAgCAIDpc038mQbHNPeKf4rhbWj8cXyO3sqXwSXM6Ww87sK5cdTqS0NBZmBUyta+BhklAqWNJA69VeqtFnShvzUe8wqS3IORymTciz2mHjDrVIJHXiwBxDRQkCtNFaatC36lenSn0agrLU0oUZ1I77k7lnLlvtMFljY9w4Z7iwvafojWCQKOPJFd5WFCnSqVW0vhWdjOrOpCmk9WU8qZInscYtDLS9zmlt8GtDeIGs8oVIwKspVoVpdG4q3ArqUp0Y76ke84MtSsksk0VeXEHFmJDg6hII171GHoQlGcZcHqTWrSUoyjxR+QZZFot9ldG5waWEOZU0Dg2UkEaD9HHcjodHQmpLO+v4Crb9aLX9qQW7JTmWuGzi0TESNqXXzUc/Rj/KsoVU6LnurLkYzpNVVDeeZJnFFwc9mhdPI1gjAc+8QcC7lO2nQow73oTmopu+lia63Zxi5O1tS1mnanC0zQtmdNCGXg5xJoeToJ0aXDru1WGKgujjNq0u4zw0n0jindFfL2WpBauEjqYrKWh9NBLzR9f7RsIWVChF0rS1lp5GNatLpLrSOppZ2ZUeGwRwPobQRR48k3QKHVW+MepVYWlFuUpr5eBbiarSio8SNub1phcx9ntLnmvLbK5wa4a9FfHHHSpeJpzTU427rELD1INOMvvco52WB0UjHtnl/fSkEXiA0Ejm03qzC1FKLTiskV4mDi003mzq8k2DgI7nCOfiTeeanHUtGrU35Xtb7G5ThuRte5dVZYYueHzSTfF+oxbWC7eJq43sJHz9ekPOhAEAQBAEAQBAEAQG7mm7lyDa1p7iR/kuRtaPwxfM62yn8UlyR1th53YVxY6nZloaCzMCK1WdsjHRuFWuaWncRRTGTi00RKKkrM5SPN+2xNdDDaGcCa6cHAHTTkmnYe5b7xFCb35RzNJUK0VuxlkX7Rmu11lbZ75vNN4POt5rWo2Y0p1BUxxTVXft5ci2WGTp7l/MoSZAts4bHaLQ3gmkc3Fxp90VPWT14q5YihT+KnHMqdCtP4ZyyNDKWQ3Pnsr47oZBdBBJrRpBAbhjgFTTrqNOcXqy2dFucWtEfjs2mttcdoio1oLi9nWWuFWdpxClYpuk6cvJh4dKopxJbfkl77ZBaAW3I20IJN76egUp9Ia1hCtGNGUOLJnSbqxnwR4yzkJ09phlNwxsFHtdWpxccBSh0jWsqOIVOnKK1ZFWi51FLgQ5MyLPZpJ+BMZieCWBxdVr6civJOAJI3UWVWvCrGO9e61MadGdOUt3RlOy5luuESWh4c6pcGElhNTS9Wl7birJY5b3wxVlp3lccG7ZyzJhmzI+zMhle0SROJje0uIunG66oB07NFAsf8qMarnFZPVGf+NJ01GTzWh+fsG1zOYLVaGmNhBozS7fyRp2460/yKME+jjm+8dDVk1vyyRo5y5JfaDBcLRwcl43iRhhooDsVOHrRp71+KLK9JztbgzbWubAQGLnh80k3xfqMW1gu3iauN7CR8/XpDzoQBAEAQBAEAQBAEBrZsupNTaxw8QfUubtSN6N+Z0dmO1a3JnaWHndhXAjqd6WhoLMwCAIAgCAIAgCAIAgCAIAgCAIAgMXPD5pJvi/UYtrBdvE1cb2Ej5+vSHnQgCAIAgCAIAgCAIC/kN9J495He0haePjfDyNvAytXid3Yed2FeajqekloaCzMAgIrRG4gXX3eu6HelAV+Ly9P+W1QRZji8vT/AJbUFmOLy9P+W1BZji8vT/ltQWY4vL0/5bUFmOLy9P8AltQWY4vL0/5bUFmOLy9P+W1BZji8vT/ltQWY4vL0/wCW1BZnuOCQEEzVGsXGivagzLSkkIDFzw+aSb4v1GLawXbxNXG9hI+fr0h50IAgCAIAgCAIAgCAnsD6SxnY9npCoxEd6lJcmXYeW7Vi+aPodh53YV5WOp6mRoLMwIp4y4UDi3HSKd2KAg4m/pn9zfYosRYcTf0z+5vsSwsOJv6Z/c32JYWHE39M/ub7EsLDib+mf3N9iWFhxN/TP7m+xLCw4m/pn9zfYlhYcTf0z+5vsSwsOJv6Z/c32JYWHE39M/ub7EsLDib+mf3N9iWFhxN/TP7m+xLCx7hszgQTK5w2G7Q9wQWLKkkxc8Pmkm+L9Ri2sF28TVxvYSPn69IedCAIAgCAIAgCAIAgP0GmOxYyV00SnZpn0iwGrq9S8glZ2PXN3RorMwIrRFeFLzm46WmhQFfiP10v4/goIsOI/XS/j+CCw4j9dL+P4ILDiP10v4/ggsOI/XS/j+CCw4j9dL+P4ILDiP10v4/ggsOI/XS/j+CCw4j9dL+P4ILDiP10v4/ggsOI/XS/j+CCw4j9dL+P4ILHuGyXXA8JIaai6oO8UQWLSkkxc8Pmkm+L9Ri2sF28TVxvYSPn69IedCAIAgCAIDiLPlmdmiQkbHcrxOPiuDDE1Y6M9LPB0Z6x/Bo2fOh304wetpI8DX0rZhtB/UjTnsuP0S/JpQZwQO0uLT/MPWKhbUMbSlrkak9n1o6K/wBjQhma8Va4OHUQfQtiM4y0ZqSpyh8ysSLMwPoWQn3mxnbG0+AXk6sd2rJc2eqpS3qUXyRsLEyIbVGxwpJSldZpj/tUIZV4pZ9jO/4qBZDiln2M7/imQshxSz7Gd/xQWQ4pZ9jO/wCKCyHFLPsZ3/FBZDiln2M7/imQshxSz7Gd/wAUFkOKWfYzv+KCyHFLPsZ3/FBZDiln2M7/AIpkLIcUs+xnf8UFkOKWfYzv+KCyJILNCHAsDb2qhx0b0FkXFJJi54fNJN8X6jFtYLt4mrjewkfP16M86eXyBuJIG80USlGOrMoxctEVJcqRjWTuHrOC15YunHjc2I4SrLhYqS5aP0Wd59Q9q15Y5/SjYjgF9TKcuUZHfSpuw+K15YmpLibMcLSjwIeHd5TvxFVb8u9lvRw7kYapN4IAgDTQ1GB2ostA1fUvWfLE7NEhI2O5XpxV8cTVjozWng6M9Y/jI6/IP/JT4Q1stna8NFKscWmn2SCD3hatSO/Nz4svhBQgoLgdlk7/AJKsEtA5z4SdUjDT8TLzQN5CwcGTY6BmU7NMy82SOVtRzSJMesNrTWsGrakM8cNZvJb5s+6oyMbocNZvJb5s+6mQuhw1m8lvmz7qZC6HDWbyW+bPupkLocNZvJb5v4KudWENWWQpOfyocLZvIb5v4LGNem+JnLDzXAjltdlH0Gk7BHj4gJLEU48TKnhak9F+ShLlNleTBHTrAPoWtLGdyNyOzo2+JlmyW+znnxMafsgg9wVtPFRllLIorYKUM45otcNZfJb5s+6trI0chw1m8lvmz7qZC6HDWbyW+bPupkLoC2WVnK5DKfSLbgG9xAARZ6C6Mu35+2KOt17pTsjaT/U6jT3q1U5MhzRymcGf5njdFHAGtJbynOqeS4OHJAAGjaVdRi6clJcCmrapFxZykuUJHfSI3YejFbUsTUlxNeOGpR4FUmuJVDd9S9JLQIAgCAIDHVZuBAEAQBAEAQH6xxaQ4EgjQRgRuKA+/ZpuljsVmEjZZHGNrnOc++6r+XQlzq4Xqdi15PMxbNXjruhk/p9qxuRccdd0Mn9PtS4uVZsrYUa0g9dDTdRalbFJZR1NujhnLORmucSak1K57bbuzfSSVkfigkEICN0LTq7kMlNoqyxEbkLoyTLlgyo+PDnN2HV9k6lsUsRKGWqKK2EhUzWTNmz5XD+bG80+z7V0KdaM1kcirRnSdpImFsd0L/6fHFWXKrnnLdl4WzzRn6cbx2lpp40WUXZ3DV0fBVuGsEAQBAEAQBAEBjqs3AgCAIAgCAICzk2ycNLHF5b2N7CQCewVKhsM/o9kgZEHHBrWA7gG1WtJ2VyIptpIybJlWSgLqGoB7xqIXNhi5rXM6E8JB6ZH7asoOfgOSNg17yoq4mU8lkiaWHjDN5lNaxsBAEBBarYyMctwHVrO4I3YyjCUtDzYbcyUVacRpB0jeoTuTODi8ywQpMSrNBTEaELYzvkyJriDUEgjWMFKbWaLHFNWZJNaXvFHPcd5KylUnLVmEaNOOiR1NitHCwNf5UYJ30x8arr05b0EzhVYbk3HuPieX7NwdpmZqvkjc/ljwct6LujSepnrIgIAgCAIAgCAx1WbgQBAEAQBAEB0/wDx3ZL9rD6YRMe7tPIH9xPYsJvIiWh9bzqtPB2Jw1vDWD73O/pDloYue7SfPI2sDDfrLlmUoxgNwXLOgz0hAQGLnBaCbsLcSaE7tQ9fYsZPgbFCP1MgiycaULz2F1EUS1yXcTR5PYNWO1TZEOTKk1lcx19hII1j1o49xldNWZds+WSMJWH7TMe8aku+JTKh4WXGZQa7mtdvIoPHFSYdE1qRoXBAbGZ1ovWdzNcbnjsdyh4l3cujgpXp27jk7RharfvRwOf1mpLHJ5bKdrD7HDuXUpPKxyZ6nLq0wCAIAgCAID8vDaEJORZIRoJCpNomZbHDTQ/71JcXJmW4awR4qbk3J2TtOgj0elLgkUgIAgPov/GFkpFNKRz3tYN0Yrh2vPcqpswmdJn9af4MWxpef7W/5rk4+Waj5nY2XD5p+RdboWoZn6gILZaeDbWlScGjafYjZlGO87GbZbPdq5xq92Lj6h1KEjab4LQsKSAgCA8GJuwdyA9tbqCEN2Pb4iNIQhTTPCGR7zMtNJ5GapGkje01HgXLYwM7Tce81NpQvTUu79mfnzZr1mv643tPY7knxLe5dqk8zz89D58tgrCAifaGDS4en0KLk2K78ot1AnwS5NiB+UHHRQf71qLk2K75XHSSe1QDwgLUuR2Hmkt8R44+K25YaL0NWOLmtcypLkd45pB8D/vaqZYaS0L44yD1yKktle3nMI7KjvCplTlHVF8asJaMhWBYemvI0EhSCZlscNND/vUlxcmbbhrBHipuTc+3ZpWTgrHA2lCWB53ycs1/FTsVMndlb1M/OyUutLyQaCjG12NFDTtvLh4u7qts9HgFFUUk8+IydlssaGPBIGAI0gbCNaoUiypQu7o1BlmI6CSToaGmte3DxWe8inoZnjEuvu06ANTRsHrOtSWxVlY9ISRslvE0GA19ewbUuLEiAICzYwHMa6nOFew6EKJyd7EdqhILXsFbpJLRpIII5PWK6FDCldbrLMUjXtBBqD/uKkwaaZkZaDmAUIuuw667Nyxlc2aMlLUgyG17JopA00DhUnDknB2nTgSrsPTqb6kkV4utSdOUG8zbytZ+Ehlj8pjwPtUN3xou2nZ3PNtXPiL8oPOig7MfFbNyuxXfK46ST2qCTyhJ7ZC46AVkoSeiMHOK1ZOywuOkgeKtWHk9SqWJitCdlhbrJPgrVh48SmWJk9D3xVmzxPtWfQw7jDp5952MthjdpYOzA94XSdOL4HNU5LiU5ciMPNcRvoQq3QXAsVd8SlLkaQaKO3Gh8VW6MkWKtFmdasndJF2lv+SonRT+ZF8K7XyyM+XJDDoJb21Hj7VQ8NB6GzHFzWuZ4smbM0rrkRa40JoTdwFNGquO1a1Wj0au2bVLEKo7WPwZrWoSxxy2eQB72MLgLzQHOAJL21AoCTpVG8jYPtrJSMBoGpUXIsiS1WF9Lz2Va7HRUY447FEoprMzjJxd0zCtlgirQPDHbCR6CarUqYKLV45f9G9R2jNNRln/ANk1gsIjxOLtuwdS56jY6rlvFxSQQE39GDNZ8rqHV1qNSdCYCmAUkHjhauoBWmk7OrrKCxoMhFKEVQ13J3IWjghT/r8Wb9revVu0RoH8X3LYUmBn28GL97GKkkBzdTq66DQ7rUWfAsi08pPzPyzPkmNTGRTQ0VJrrJww2dpW9haUl8UkaOLqQtuwd+9mpDkaU4kBu849wW9Y0CvFYpX6GOPWcPEoD5zbMx5XSyuvsZGXuLdLnULqgXcBhWmnUrulSRXuNswJMmNY5zSSbrnDZoJC6FOjFxTZoVK8k2kWLPYq8yMnrAr4rYjSXBGtKs/qZoRZHkOmjd5qfBXqjJlLrRRciyI0c5xO6g9qsVBcSt13wLkVgjboYO3H0qxU4rgVupJ8SxdGwLKyMbs/VJAQBQAgIJbFG7Swb9B7wsXCL4GSnJcS/mpkRptHIcQbj9OI0t7VztoU0qV13nQwFVyq2fczrhkaQOAIBbUVIOquOlcOx27m9PZ2O57WneB6dSyIMp9tEjqOc5sQbe5Ju8jGj5X1BYxxHJaMTpOFQLVGy5lDnvPPT+1MzLwjEJMcLYgLpBcWxF4BBN2PSfvAFa2KpylSds2beCqwjWjvZLmZrLUwit4DeQFxbo9E4s8/xPsf3f8Ar6U1GhYCkghe8uN1uFNLtnUOv0KCS9Z7K0NGGpSUSqNs/BIYzR3MPNds2Nf6j2HrgxtvZotKTAzLbauL3aCrHV5NaXSPJ6upYt2LoQ6T7leG1vtUrGMbRodU46SK0BOgbldh051FbgV4lRpUnvPN5I7HI+TjHVzucRSg1D/ady7CRwzTUgIDFteRmm+4uNCa0GGk7Vi0ZLU4PKeT42TyUYOcTU4nHHXvXpMGoujF8jzmMclWkr8SNbZqBSAgCAIAgCAIAgCA3cy/nP3H+lq5+0ux81+ze2d23k/0d6uCd4z8svFxrDzXuo77DWukeD1FrHN+8s4LO5XVeVjEnlcGg0Bkc6IgHQbVPi2/tbEwCnZrAKuSTfL9L/0122lz/b/8Rylpym6GWYNLJiXkcLJGHPNMCG1JAbWuC3FSU4q+XJGk6rhN2z5tH5kFokBiAInbefE68S2Sgq6J7TgKgGhH/wB062EhF726rfY36ONnJbu87rmy5ZLVda2tbrheadOBpgd1QvP1sPOjNxay7z1GHxVPEQU083wLIl4TBhw1u0dg6+tUamxaxOxgAoBgpIPeT7ZU8E7B7cB/MBoI66alCfApqU7fEtC85oIIIqDgQVJWZdqtTrNQUvxmtMcW01E6xsWLdi2MVU5My5Zn2qQYUaNmoHSa7Ss6UHVmkjKrKOHptt5s6jNzJRaW84tYSav010gaBXUu0kuCsefbb1dzqlkYhAEBDbOYez0hQ9CVqfPs42Und1hp8Kepeg2bK9BeZwNoq1d+RmLfNEIAgCAIAgCAIAgCA3cy/nP3H+lq5+0ux81+ze2d23k/0d6uCd4zMuQ3gwbXPZXZwkUjG/1Fo7VZTdrlVVXS/tUzCzhjeGkgmNzXwWgkYlreD4CQinOuYE01FX0Wr211X7RrV07X0eT9LP8ABxuVsnPgeWuxBxa8c17TiHNPct6nUU1l+DQqU3B2f5PGSbdwMzJQ29cJNK0rUEaRvU1I78XEinPckpHXHJPIgj0SNjia77csjZC3e1sbyeqi5s7Sbf8AZHUheKUX/XzKj7FJFdkbRzZQX00YOcSKV6iO9cjFYaW+5QO7gsZB01Gpl3M8T2twGLC2uFTQgLSnCcVdo6FOdObtGSZUtToyBdJvA1BxrXrO1Vu3AuSfHQ07PlS60cOC06nUJB3gaD1KyUZQSckalozk1TdyvJbeGlbc5kYe5zjgKXTUmugU9aswycqisYYiKp0XvavQrw2h0jpZIIS+KNjHOkc4wxcgPeaOoXvBa5pBYxwO1dlU0lZ5HEcnJl60W1kUT44Hxwyxx8NMZHSPjE0lSY23HNM0hfgTWoq2oJICy3bvMxsTvy+ASeAlLDCZWXZXXnNYRwkjq0bHDjyXE1dQ0GLaxuCx0VutEFlAkkkcCSQxt573PdQ8mKMVdI6leS0ErFK5NrFrJk8r2l8sfBVNWsJBeGUFOFI5IfWtQCQMBUqWSTWzmHs9IWL0JWpwudTP3jDtZTuJ9q7WypXptczi7VjaonyMVdU5gQBAEAQBAEAQBAEBu5l/OfuP9LVz9pdj5r9m9s7tvJ/o71cE7xDa7OJGOYSRXQRpBGLXDrBAI3KU7O5jKO8rFEjhhdcQyePqqCDgSAefE7WK9zhhn8ufB/35K/my4r+/BhWnIZBZ/FiDHFzWtbxiEE6eDZzgOojDUr41sno7+TNeVDNaq3miezZHLpeGLXSSilJJmNijZTQWxNo5xGw03jSsZVbR3dFyz9TKNG8t7V97yX4J47I57zHjWrrxJBc0Pwe95bgJXgBrWjmNx6li5WV/7/Rmotu39/t8O5G3abGx7Q1wwGimFNyoNlZGbLkBtDRxJ1BwFO1YuKasyVJp3RnR5CkBwjaOvk+rFYRpRjoiyVacspNs/bfklzBiA9p00FQD1jZ1rJxTWZhGTTujGOTpXTMu2QyxNAc1pdHHBw1XUNoryiG0YRda6lSaEgUzpxjFZZETnKT+J3OvsuR2mEx2ikzpC50ppda9zhdIDa4MDaMAJPJaKkmpMt55GNjmsoZAss1ogskdmjEUBq83RgGgPMUdea2phvU032jHlgZKTWdyLI6h+QrObxMTTfaGurU3mi9RrscRynYfzFYE7qIsm5t2Wzv4SKFrX0pfJc513ybziTd6tClyb1FkaygkhtnMPZ6QoehK1ONzsZ/CP2x33T6iursmWcl9jl7Wj8r+5zq7RxggCAIAgCAIAgCAIDdzL+c/cf6Wrn7S7HzX7N7Z3beT/R3q4J3ggILTZWyUvDEYggkOaf5XDEKU2jGUVLUh4vMMGzNI+sjvHvY5o8FN49xjuyWj/KBssjsJJsNkTeDrvJLnDsIU7yWiG7J6v8FmCBrG3WNAGwdeknaTtWLbepmkkrIkUEhAEAQBAEBm5FyTwAeS+/I9xLn0DcLznBoGNAC9506XuOuglsGkoAQBAQ2zmHs9IUPQlanKZ0srE07HjxDvgt/ZUrVWuRobUj/8k+Zyy9AcEIAgCAIAgCAIAgCA3czPnP3H+lq5+0ux81+ze2d23k/0d6uCd4IAgCAIAgCAIAgCAIAgCA/KoRcVQXFUFzOziyi2z2eSZwLg27g2lTVzW4V3rKFNze6jGdRQW8z5/as8G2n9y2EtvGt4uGF3HQB1bV08HhXSqqTZzsZilUpONiuuyccIAgCAIAgCAIAgCAr5QgL4y1tATTT1EFV1I70bGdOW7K5JmjkyRs5q5vKY4aTpq07OorlbQotUr8zqYCspVbcjsv2c/a3vPsXEsdofs5+1vefYlgP2c/aO8+xLAjls13nSRt+06npUqEnoiHKK1KMtugbptUHZIHHubVWLD1XpFlbr0l9SKUucNlb/ANwd9lkp8btFYsHWfAreLpLiU5c7YRobI7saPSVYsBUerRg8dT4JlWTPEfRhPa+noCsWz3xkVvH90StJnfKebHGN953rCsWAhxbK3jp8EiJ2cFrdzcPsx19IKtjgafc2VSxtTvSIzara76cngz0UV0cHDhAqeMlxkRusVpdznu+9IT6yrlhraJFLxPNnn9jSeU3vd7Fn0DMenQ/Y0nlN73exOgY6dD9jSeU3vd7E6Bjp0SWfI7g4F5aW1xFXexTGg08zGVdNZGrHZGNNWsaDtoK96vUIrRFDnJ6smWZiEAQBAEAQBAEAQBAEB+Otz4AZY7pc0YXgSMcDUAjUTrWviaaqU3Fl+HqOnUUkVH53W5/NIH2Igf7gVzo4Gn3M6MsbU70QPynlB+mWXsIZ6KK1YOHCJS8XLjMrvs1qfz5Hn7crnesq5Ya3BFTxHNnhmQna3NG6p9isVFlbrR7iZuQhrkPY2nrWXQcyOn5Ezcix6y49o9QU9BEx6aRK3JUQ+jXeT7Vl0UTHpZEzbHGNEbe4LJQiuBjvy7yZrANAA3BZWRF2fqEBSAgCAIAgCAIAgCAIAgCAIAgCAIAgCAIAgCAIAgCAIAgCAIAgCAIAgCAIAgCAIAgCAIAgCAIAgCAIAgCAIAgCAIAgCAIAgCAIAgCAIAgCAIAgCAIAgCAID//Z;" vertex="1" parent="1">
          <mxGeometry x="1620" y="320" width="225" height="225" as="geometry" />
        </mxCell>
        <mxCell id="zQAnH2hgNNJ8GHYaH6ZK-14" value="carta liberacion de servicios" style="shape=image;verticalLabelPosition=bottom;labelBackgroundColor=default;verticalAlign=top;aspect=fixed;imageAspect=0;image=data:image/png,iVBORw0KGgoAAAANSUhEUgAAAT4AAACfCAMAAABX0UX9AAABKVBMVEXftZ7++eH2g0TNS0yaoaHqqXGHyML//OPespvt1b5SWmf//eTqz7j03MbKOz+Smpz////LQkWqr6vguqK0tK+s1sp+xcDgoZPGxLrU59Xl7tqu1s+OysX8hUL19d7E39D67da5287elYjppGjpsYRCV2naioDsrnOeaGHoq3j2fTnouqnsmXDJMznLQkneiWbkr430iE2So6bvxZ7ZkX7opX/qonjDs6Xt9fPr9fP3ezP2dSbcfEu/dFPhkWeLZWHvgErQWVPHJjDSz8LwlWDxkFrmqIjjiF29koTuxa74wqfs2834uZv639P2qYX48emnmpTQd1P3bgX2vZz4y6t3YWTs5t23cVf60L1dW2ePZ13YlXDKoYapblfifEy2taT/3LuylYviq5tYzRSLAAAJNUlEQVR4nO2cC3faRhaAEQ4WRjYlS5asUyt1AtRFxolFbYrBzy52g5M4TZyQuNuk3f3/P2Jn9IB5a0DKUc7MfCc+dix8DvrOvTOjuXMpFAwGg8FgMBjE1Avl8j6gXAY/GhagXi8fjv2iF1H0x4dGoSz1ctf33CKG610eGoES1PcvSXeRQbe7bwyKgfJY7qIQHJeNQAH1Ll9eaPAw77f47VLf95lpi+L55bzf5jdK/TAh9KIA3M/7jX6TJCbuLADNHEwjbQ/46xt/BAvYg/GX99v91ugvYA/4u1Iv/ur12RfyI+uL/tXVQvaAP9Xmj1/upWExeQBfsfBLo6/3G7Heg/sEYtyuWv5S6Ou9wGV5l5O166QFtGLpmyb6CDFXRy+va7Wk9L3M+44zZXl9vQM80vyj6dB/VXs9TAi/q7xvOUtS6MNT170ZDCZAXy1p+FNq9lhe3ws8+EDurrs3b2q1xNFPpfBbWl/vCxlVRxPf7wbJ6w2HoyE3Csd533OG/PKdgF6Pf+13Uo93ezQBuXtZ9PzJdFB784q9+wzI+56zo7xmCWi1+Nduqega3qxNP/nu8NVgMABJXHvD2YFWKHvLazbPj221SqUW77Izpr24HshYD9p7OfoE/NV8dvR1877rzBDos1rNUqnU4V0lIsstnoe56h8NBoVRcdQF+jiLGD/vu84Mgb7AXvNn9nV7AzfjHlfab6E/bzIYTN/deLej18AfI0Tha/K+68zg64vsOZzcfU+s+u4qlfYx8DecAn3r09FtkL7XzNFPnQc3rj6xPctpEfo+VADghyHI3cH0yhtdwsHvE1OfOnU3nr4Ee5ZzQ+g7aQN9Z26gb+p53qQm0KfMtgtHX5I9y+mTxzFg+LU/ujB5r0cvR6+7MHnp1Y2q+mxnBmHPZkDpK57D7G1/8a4Hg/XRjTd+95q7clFQn73x44xOCYu971mckvrcjzB971wXjH2HcPkHc5e9cFFS3979iFPcnrXVWKVoUPqi9P1j2IVzxxDG3hvOY6+S+qorAc/6O8S4t0XbW238h36gPYfh1z4Zjqdg+uDHntr6AnulFjJryOoLZ9/2W2/Ynax/uva5+6auMvVySl8fytv57SGqj8Hqn4zEdM8Cf2fH7nA45O63KLnuC/U9O4Wxt/O8+pC/ZgkXLu+Z49pdJZh/K2efT94efzn/Ak9H0hoVfOqIou8C2jt9dj9Jn73NSk33uF0JaUdU7j6cUP4UfOadjX3Q3kqiPstip+VJ7G9O+4z0p061g9Z3Aezh+uhFM8zeLvsk88c2JbD9GX+pOhMvQ98KsIfr+4HiEXfwK7rnnyuUQCJ3FdxtnutbIfVtNUh+AH+0zSsFucWTO1xgmxj+lAk+OX3Uog/q42RvINDFBeLZ66qzV59Cn/2X4DiB635G/f2B6lNn2YLp+7U6Zy85ee0GpxAUCTxG9H1A9V2qk7voft82RvCrTlBoe0wDLz7mTB6xv/O7mT506aJS8AkrbVZHUKiEaxdh+AF/s8UzmrwqBZ9QH9z2awoK5WS1jc7fnyLezvW5SrXHCPRFm6ai8Es6GO7GzFO3n/cdZwpfH7HlzEacvgyUSl2+PlvKHnvjQETe95sxPH2oPUfA3wv5U2rWhXD0ofbse6IjbC8W6SpSriuGXajEMtcWn5I8kO9pU2erIGb+1LH949MYfNwT67vXeyGbvwr25LMKlU181gDJK/b3X0FZY4arZD80Y8ugRM65/0pknBiAnkoHmucwNutLZKHS5k+8Me9d8fOvr9ykEULpC+TtPE+udWA41it+O5tbVKauS8IuVJ4mFioZAm9d5hjoFRX+KCFmofI5XqhMzl242AEv+7vveZhCkNJjRdM2hEreC2gP321+IIMTeLY2bruX4YdYuUV/3FftKYOEUah8ThQqE9Z9EfEiEQTiWjlgnrLlVqfTUnHdIlOolNLXQ16/RpjaDxeSKkaiRKlooeiDr1/H9YX2gL+cbvFrIqPvwT8k4Omr75diWrnd5VdDplApOfMy9dUPLmb6Ovnd5tdCplC5IKi++sH9lQsd9LEKlbaoo1JGX/2gGq0lVU9e4iBVaK/ZFBUqE/WF9mJ/Sk8dDGB3h6hQmaQPZu7KzJ/aCxe2vVLz56X1ze0F/lS0x9dnJ/ZlJehD7QF/StrjFyqXthfpw+3dP1Bz42DZjsokfYS9p2raW7qjMkGfJvbYhUo7uaPSxq6Q+nSxJ1OotL7/J80T+Geb8f82cX31p6i9qrr2lu2obGzB86VPoguNJ2j82WsH6ONzVdFZI4CxZdAnC5WslkBM3yqmz/lfVY/MLfA7KvcTOir50efs6mOP0VG5QxUq6aPhjTh5IxB9zu6ePvakOiq5My8xDzPsqTzuQWQKlQugV+zJFSqNPS4ShUpO9pKrZcqeyuu9GJmOyk0ej4T2VB/3IMt1VEZsCuxpkLmFJVsC40ePTd3tZadPS3tLdlTGyctb7+kwawQg+30bKNtIYDE6Kud9lczY02HWCBAVKuXRcM4NETakytur6pi5hWz0ORPU3t6EPKCmMBnocyZ7mD1n3ehb2t6uQ57vU5nU+ohxb9ehjkeqTFp9tD1N9eG9Q1jtJ/xN9IVdpTLX0lSfvf30IcIE8Uf3sE3n5Tky9nTVNy9UAqrY0XCyo/K7f0d/5LT6lD1d9cmfrI/12RvNUh/PXKNPXp/TKpVifzN7Rh+trxf8i79H+mDwQaLVsmX0sfSxSh1h8HWiM99o7Bl9pD4OcfCB/K3uoraNPhl9s+BrtjawupzRJ6MvCj4oD3tyMfpk9IXBR8kz+uT0bTSZ8ow+KX12B8pj7eobfRL6NpiRp7G+xToqefI01cf86FcB/GKcpvpSFCqNvuww+ow+SYy+VBh9qTD6UmH0pQLRx/tcFouxU2r0hcz1IR2VgAni7wlGoj8t9fELlVhHZWPV6ENY+GzzltGHsPjRcKMPwehLRYpaR0SJRMFP+uKSvT6d7GWvTyt7mevTy56UPk4/JUufZvbSdFQ+pvXpZi9FSyBDn3b2MtWnn700HZWkPg3tSXVUPmJDTB062sugUKmzvQx2m3W2l5U+Te1lpE9Xe9no09ZeJvr0tZeFPo3tAX0O7xOq5LB0tlco1NdTkvcN5Ew5JXm/f4PBYDAYsuL/ucu3GKpIocgAAAAASUVORK5CYII=;" vertex="1" parent="1">
          <mxGeometry x="1900" y="370" width="318" height="159" as="geometry" />
        </mxCell>
        <mxCell id="zQAnH2hgNNJ8GHYaH6ZK-15" value="" style="shape=image;verticalLabelPosition=bottom;labelBackgroundColor=default;verticalAlign=top;aspect=fixed;imageAspect=0;image=data:image/png,iVBORw0KGgoAAAANSUhEUgAAATcAAACiCAMAAAATIHpEAAABv1BMVEUBwcyX3fcAKCr///8iM18IyM4NRUsAJSUAwc0Bwsqa4PqT3/ia2/sAvsYtv8+N3/eW4/wWvcqR3/ue5P4iNF8cKlkSIlJGaIoNHlR9uMtOeZh7udRchqaCutggLVsaLF1IbYnv+/yo3fLC6/UAAAA4Wn3j7ukxfVEwdVSxzcQAAB8kdEwAABkid0UAJjD///o2fVMAACUAICsAKSNfkK6oxLUAABQADCRynYUEJioAFCYAGiEAAAsAIjEAGic9f10ADxsAExQAEhoAHhwAFi8AACwtQCVfz+Vqz+lNz99v2+9Ey9Pi+/2z4/DU8vum3PIBEUmMyuWFrJrQ4dhpnHxPiGxsn4tfj3ZWj2zT5edtp8OWtqbQ59Ynf0sACkspcE4AajMFaT+JqJfC5PhfbkXEzHnf4XikqFC/x32AhEzKw2afq2EyNSzDz20aMR3h3HJVWSs9Qh9bbTyLllDU2YTr7HevtWSFkl4gMgc5RyuyrU3Dx1Nsej5Zakfn62iLiENCVy4AHgre5Gfr7oZDQyh1ezL//3SnpFseLR2MhUUHHgBMUiGOlzpiaiwYJhu2rlrFzVakuVgwRjV4jV5QTy7T6zJhAAANvklEQVR4nO2dC1vaWBqASagbIDAInXa602lnqay2iFGSSpoAabhIx446O71NZ7rdbmclCDTBkgaLoKIdL7Mttdr+4D0H7czTVvapIYSAeR+VS2LwvH7nnO+c3CwWExMTExMTExOTE4IdcPjQo3TPG/jsbn18GzT/asBAlz59YGCgi9HSBuCPb/7pXfJmt3g8X/QmNosHmOuCNMvAgOfGTbejR8HdN6c9HovNprM7+4Dnu0EH0tO4b3rsNn3bOLvrC6/TgePdLnobgL/d4Z122XT15poeRIA1Z7cL3wZOxOt1O266dHNmt9ldNxzw/4X0crw1cTu+c9l1CjnQJXwPqmjPOwOAUjimXR59xNkHXG68b7whpz065XF217Szf7zhyE2XPn2q3eVG+sib22vRKd5A69btAmuJ44Y+yYjrprOvvCE65SIuby+nbUfgtesizuXtr3DDHfp0qB4v7u12WTVl0KOHNuit2yXVFtObOkxv6jC9qcP0pg7TmzpMb+owgrdjKTXI3IARvB0PY0yrGMGbE8Hd3s/lYOKw6xjBG45c+nycTkNU1W56g+958UtDPp/1OPjmZhF80I3jbv3mWD75V3XXG7A2dyxn79UNIV6ns5tx101vDgQZso6PH9vaOPidmVnc27ojPq0tg+D7o8/qarwhzWA7vrhmyM229uY4/43WXP3o+IwueTuYNZ9RZewPcS284cjg1XNntOXs308bwhuCOw+jrQ1xP7hbejtzSlO+vGgQbzjwNtuetvHxmdbx1r/eEOR42ccR4qyzJ84bSEHaDDcoztdibNu/3kD71lancMgl71FNHN7P3tquppChI3eSAW9n+9bbrLq07UNm8KOGWn0db0NaePMhziMiriPeBg3hDUe08eY8ahyCn7565kstOXXqjEHiTStvyJHeBjX31m/x1sLbN/84qzEnId4Q5McLmmOMcX2HvXXgZJmPPqE/vXUe05vpzfRmejO9md5Mb33hbfjenWuAW5O3fXCv4Pg18PIKXHDlDnhqtd4CD3eaq1y7c/vDvV8n29voSJPRx3eHoYsJ8HQSLpgcGxm5brVeby6daK5yxfT2iTeg5rLPah2/PvGnt4d/eGsyZnr7wNvExL1bdy+PTIw9gN5GRh4eepuA8fbT/Z/uX5+YmLh+//59s55+6G3sZ6v17sTI2J0Db2OTcD/fYT2FXG7W0c/rF3DNj3M4bZjjHI7ydg1UxGtHehv3HdPbL19pzdfGm0caHn0IvQ0DX6Ognvra9+a4eu6ippwx4nwv9DZy7w5QM/JoWJN4O631/oVTRtkv84m3h6AzGLncbPbb9Qaat77dD/iJt1Ggbeyfzdfte3NcPfOlptoM6g1kbvfugs7hJ+sH8fagHW/aYlRvYz8Pj04cDgfugyp7DS64BrzdV+ftX+c05ew5A+7POsxDbo0e9AvWW0DXo8lh3+Sjgw5Whbcf/6op5y9cOG+8/TKH3mD+MQpqqvX2GBg/gPdGDztYFd7gpXG0xJD7Zd7nvVegKzjAevAYjFUn4NfBOPXY3nTACN4ej439G3iz3h0bHX18GzyZvDw6CqJt9PqhqnHfo7Gxx6a3D735rgDgUV3D8Mnt5lu3H/z66+TtP8fwcMnwMbxpahM/YnsG8NYGJzreOuDNMagpxpwP0d6b45evtcYg53101tvpvj3vo+PHv2k5PDXo+NT43ow5H6K9N9z0psqb5vOWJ8MbnA/R+DDVcyfCm9bHqZ4/f1KOU9V4PmTQ8fFIq9e96XP5aRw3iDdEM29doue9naxxvUbntflOmjdcG29zCHLkOfYO7Y8PMYg3BPFpIO4/R15NGR/85W8a89XXxtifBQKuzas5WOG+1h8+yQ8OvF09962mGOb4EFC4S+17m3Ef2b7B850vajnMumig8wERd/snis868Vbn12u6t94441PIrE/lJX4Oo8061/I6P5ofj/StgbwhbV4JY+ZSC23ae7v4rUHq6QFz7QScr6U24E3r83aNMh8CcTuQoTa0tbg6UtPbj+e15cKFC0YZn0K8sI1TwTho2/7vtQY1ng8xznm778FVmfPNzbq7NL56T9evC+rFh+ZmZmZ8n83M3NAl3Nnt24d025sT9zrdcHrrc0Gc8GK03dbWdW8IospBl2upIbz1JKY3dZje1GF6U4fpTR2mN3WY3tRhelOHbt5az170JDp5s/RdvOmjzeVG+uy+irp566+Aw3XydqPbBdUUXK/77dq/+HjCtKfBHdN2Pe7vbIf3E+8jcK9Fl/uw22326X4KOMcNfe5fb7MNwDuKd312WwtAXuD0uvS5fb3FZh/wDBrhfmHtA0oxOO2y6XL7etDA2e2Wwf5o43DntEuXXgF6s9gsA997+6KN804P2GEg6GMOuANtnOP9LhVtdwzrAXJwVxyH26NXsB3iAf+jaWjO2cPcnPbYB3QLtQNsoLq6bDe+c/csN6Y9HpvHoq+3AXuzWbC7ehf7ISoN2FRjafbftja20FXaK71mEXjSGDBRg+UvJmqwYCZqsKAmajC9qcP0po5OecMIFGUYBqXAA4FiJEPA5wR4IAgMLCAojAGPGAHe5xIxioDLMPAF3qAILAbXZzAMbAO+QREMQ2EodrBNsHGsueHm+3Bj8CVcACDgC4yBa2IUg3WoeB3zBooZpnmWiPN8HGUCIZ5IRgg6MMXwfDDOBOJ8iIrRLE9QFBqcz0TJBEdEIkyC4QJxliBpNgh0kHyQTsB1U0QcDSZYDg1QKE3Gw4E4wUdQNA4+AOUiKJ9gSagZfm48TNMkF8GIRDIeACtRHSpfp7xR5LyQeZYNiJnMQjInivnXucITURSlhUxxYUXIiPnIopgRn8Yw/lk6XChltgM5WSoGZPFZll4EK+6g5MpCUVxYKebF7PqzpJIp5tKZMJ0pLWxkFvyCnOIFMSNIhbcU2E6NJSjojS2LotBYkvlKZimjZJaSHSpe5+opN1/1P1X8wvNIvCIko4X53LJcDddWwu/EaFrw+5W0UA80BJoKrUqhaqO6tbi2Kwn1jXBcTL94PrVW5AkmKi4Ga9Xgc2V9dX3V3xAlIRrYkPxiI1CqKsmg8tyfry2v7clBaTUdQwkSRelqIyiXX2XpihD1v/BHDoKwA3SsnkZqq+LWb4GN3Xxhsxwu5OXN5bD8prjIvquG9lf3tjZ3iiE0rASokPKazteqmy+y2zvF2l6KCdaLIWpHiaJoQCxxpdX81tOIwm+V31QlIRgSduh8I1CUN34PrZa3dgPLuWKFCVXnOWJl/glB56vFoj+7zT4thuNKgkGJDpWvY95StWpgueoX/hv1S8rLaHbv911Zjr4qh1aKgXTRnxP8wiadFQMULzQSSqX4cn4ru7OxU0zvgBcNfjnPMygtlqbAZrL5+GpyFWxmXZGeK0m2Wqqs1tYUv0JUlNe7m9t5urEqMcmanKbY/HxQaeTeBNbyobASx3ou3ihmZSnJiulyPpPZebqQ36bmc6/3xLJEVgr8TiESyJaoslhIokTsaSYjB7crITlHladKovg7J+3lC3GwEV6usysyGyzXy8lqRmywJTFTIjm5/jaXCu9VClJqU87Ngzax/FsKdNoRBgPLUi/LwSz4IIIvJ3vPG4OSLMHQGEezNEPQPIeyFEGHWJAegEaHJrFUBPSdHANzC5pmqRCFpsA6WIznY1iMpVNgCYMmCILkMIaN0QzNJkiGDLEEEeNIkmWYVIyOURyXJFEW9LpgOwSokxgbYQiWSPERkNHwVMe0da5fYCgG5mAgIYnBJApmWUwzc2M4lgSBEWGTBMOlKCYFJKAclyIplk2lqFiKgV0jFQMrkSTGcCRBcc30L8VB60Bac1sphiJJCiM4lIFqYV6HgfwP5B0gt4G5HMz+sJ7z1hKmLsslnsrJco5Ny7kIJctynSuBn/vge4mvyzUeFP11rsZwtdxOqibvJHI5iqAi8pKcZitgnQqJJnM5hq3lmFiyxL2GW9G7GLp7YwvLJbEcVBZLK3Ull1UqG6WSEhc35+fTpfzuilwslYsRhhbl5aycB5Iya0VZzJZZKrC1mFPShWyptI8lMtlseU3MipSgRAtrb3Kk3sXQ3Vtoey1Egb4wW367vUYnViqrhd1qsFouF6iprBwW0lxwo87EpHBefpMXG1S0Iebr6SKPBpX4VLYmvykU0mDkFgDiSrQiLRb56NvVxY7Vx1bo7o3Lrk2lhaiy/gTLZkPhpXdFaWMzVHy5I5Gp7Ksp4V0oqNRJcj2zHRUaT4VoIQ+yX0kIE0ElGMjXtl9REhieJsTdcL60rgSljcD8+prI6l0Mvb0xXKFYFjYDLwrlgiSAUVHlWSCtVMRyoVBhyzJbF8oCqJQJYaPwdlMQs/LW9lJNKMocFtgqZIrxQr5QmE/GM6uFpQZYzEovonuZZzKnczG60C9I6crrFJquVyokX5F4ah8jpf2dSqVCEU8kLBavSDSBMulKZZ+V0vQ+eJJK74O8A01X0jS5U6lXJIbcr1TSnJRmGSpN0GmJ69i8Ryt090aBHCIGfpAg0UBjBIbFmrNBsebUD5wEgk/grBIDsooYTF1IKsYwcJ6IgDNDBEjT4IxSDM4ngc3F4BKq/9s3kGZRcP4MbQ4dKSDhQAcoOYnC/J5pZqsY00yJgUqwkIGTRE2fIBLBr6NE021z7o2hiObv6Iw536sO05s6TG/qML2pw/Smjv8BMzH/xlS5nT8AAAAASUVORK5CYII=;" vertex="1" parent="1">
          <mxGeometry x="2230" y="370" width="311" height="162" as="geometry" />
        </mxCell>
        <mxCell id="zQAnH2hgNNJ8GHYaH6ZK-16" value="" style="shape=image;verticalLabelPosition=bottom;labelBackgroundColor=default;verticalAlign=top;aspect=fixed;imageAspect=0;image=https://static.wixstatic.com/media/770026_66b530e617884a189776f623774d8e90~mv2.png/v1/fill/w_505,h_194,al_c,lg_1,q_85,enc_auto/770026_66b530e617884a189776f623774d8e90~mv2.png;" vertex="1" parent="1">
          <mxGeometry x="1879" y="42" width="468.56" height="180" as="geometry" />
        </mxCell>
        <UserObject label="https://lh5.googleusercontent.com/HVIO9W96yAaYmmGPym4Jyw-l5VjAzKDgZadA-7wdFztQXlOPnS8pE9bK8N-MSJaGka6b230mUHMVwAITdu6hhwh-zqX0iqy1QYJgKne1_In2DuZwNmtdp3g3iklJk9YK9fRPTMo" link="https://lh5.googleusercontent.com/HVIO9W96yAaYmmGPym4Jyw-l5VjAzKDgZadA-7wdFztQXlOPnS8pE9bK8N-MSJaGka6b230mUHMVwAITdu6hhwh-zqX0iqy1QYJgKne1_In2DuZwNmtdp3g3iklJk9YK9fRPTMo" id="zQAnH2hgNNJ8GHYaH6ZK-19">
          <mxCell style="text;whiteSpace=wrap;" vertex="1" parent="1">
            <mxGeometry x="1890" y="230" width="560" height="70" as="geometry" />
          </mxCell>
        </UserObject>
        <mxCell id="zQAnH2hgNNJ8GHYaH6ZK-20" value="" style="shape=image;verticalLabelPosition=bottom;labelBackgroundColor=default;verticalAlign=top;aspect=fixed;imageAspect=0;image=https://assets.securitytrails.com/cdn-cgi/image/width=450,quality=100,format=auto/blog/owasp-top-10/top-10-owasp-list-2021.jpg;" vertex="1" parent="1">
          <mxGeometry x="1190" y="310" width="350" height="494.67" as="geometry" />
        </mxCell>
        <mxCell id="zQAnH2hgNNJ8GHYaH6ZK-22" value="" style="shape=image;verticalLabelPosition=bottom;labelBackgroundColor=default;verticalAlign=top;aspect=fixed;imageAspect=0;image=https://miro.medium.com/v2/resize:fit:670/1*uFiOn26ZM9VruTw3AoA8iA.jpeg;" vertex="1" parent="1">
          <mxGeometry x="1620" y="578" width="670" height="216" as="geometry" />
        </mxCell>
        <mxCell id="zQAnH2hgNNJ8GHYaH6ZK-23" value="Personally Identifiable Information (PII)" style="shape=image;verticalLabelPosition=bottom;labelBackgroundColor=default;verticalAlign=top;aspect=fixed;imageAspect=0;image=https://www.atatus.com/blog/content/images/2022/07/what.png;" vertex="1" parent="1">
          <mxGeometry x="2380" y="82.5" width="470" height="235" as="geometry" />
        </mxCell>
        <mxCell id="zQAnH2hgNNJ8GHYaH6ZK-24" value="" style="rounded=1;whiteSpace=wrap;html=1;" vertex="1" parent="1">
          <mxGeometry x="1350" y="420" width="120" height="60" as="geometry" />
        </mxCell>
        <mxCell id="zQAnH2hgNNJ8GHYaH6ZK-25" value="Contexto del negocio, Objetivos software, Recursos, Estudio de Viabilidad" style="rounded=1;whiteSpace=wrap;html=1;" vertex="1" parent="1">
          <mxGeometry x="630" y="165" width="340" height="70" as="geometry" />
        </mxCell>
        <mxCell id="zQAnH2hgNNJ8GHYaH6ZK-26" value="" style="shape=image;verticalLabelPosition=bottom;labelBackgroundColor=default;verticalAlign=top;aspect=fixed;imageAspect=0;image=https://www.tipsempresariales.com/uploads/1/3/1/4/131438314/objetivos-smart_orig.jpg;" vertex="1" parent="1">
          <mxGeometry x="2300" y="560" width="721.06" height="470" as="geometry" />
        </mxCell>
        <mxCell id="zQAnH2hgNNJ8GHYaH6ZK-27" value="" style="shape=image;verticalLabelPosition=bottom;labelBackgroundColor=default;verticalAlign=top;aspect=fixed;imageAspect=0;image=https://res.cloudinary.com/djyirvx7t/image/upload/fl_lossy/q_60/f_webp/c_limit,w_iw,h_ih/v1723636309/staging-environment/local-vs-staging-vs-production.png;" vertex="1" parent="1">
          <mxGeometry x="1310" y="820" width="969.12" height="311.73" as="geometry" />
        </mxCell>
        <mxCell id="zQAnH2hgNNJ8GHYaH6ZK-29" value="" style="shape=image;verticalLabelPosition=bottom;labelBackgroundColor=default;verticalAlign=top;aspect=fixed;imageAspect=0;image=https://miro.medium.com/v2/resize:fit:1400/1*3-0EDzE63S_UZx2KbIz_dg.png;" vertex="1" parent="1">
          <mxGeometry x="1470" y="1130" width="801.78" height="451" as="geometry" />
        </mxCell>
        <mxCell id="zQAnH2hgNNJ8GHYaH6ZK-30" value="Costos" style="shape=image;verticalLabelPosition=bottom;labelBackgroundColor=default;verticalAlign=top;aspect=fixed;imageAspect=0;image=data:image/jpeg,/9j/4AAQSkZJRgABAQAAAQABAAD/2wCEAAkGBxAQDxUQEBAVEBAPFRUPFRYWEBUWFRYVFRUXFxYYFRcYHSgiGBolGxgVITEiJSkrLi8uFx8zODMsNygtLisBCgoKDg0OGxAQGisdIB8tLSstLy0tKy0tLSstLS0tLS0rLS0rLS0tLS0tLS0tLS0rLS0tKy0tLS0tLS0tLTctLf/AABEIAL4BCQMBIgACEQEDEQH/xAAcAAACAgMBAQAAAAAAAAAAAAAAAQIGBAUHAwj/xABFEAACAQIEAgcFBQQJAgcAAAABAgADEQQSITEFBhMiQVFhcYEHMpGhsRQjUsHRQlNykhUkYnOCorLS8EPxFjM0VLPD4f/EABkBAQEAAwEAAAAAAAAAAAAAAAABAgMEBf/EACYRAQACAgMAAQMEAwAAAAAAAAABAgMREiExBEFCURMiMnEUYaH/2gAMAwEAAhEDEQA/AORQjhMkKEcUAijhIFCOEBQjhAUUcIChHCUKEcIChHCBGKSigRikpGAjImSiMCMUkYoCijigKKSikCijigEIQhWwhHCVChHCAoQhAIo4SBQjigEIQgEIQlBC0YEmq3gQtC0y0wrHskamHI7IGIREZ6ss8zAgYjJRQIxGSMUCJkTJREQIwhCAoo4jIFFHFAIQhA2MI7QlChHCAoQhAUI4QFCOKAQhLJy7ynUxJVqhKI3ugAZ37rX0VfE/CY2tFe5ZVpNp1CtgTZcM4O9c+8EHiGYnTsVRczyrIaFV6ZAD02ZDcXsVNjYHTsm55UxTLiAGJy1AUNz+E5lt8xJeZiu4Z46RNtS1eKwC0anRuTcW3GuvgpIHlmnTfZJwPh2K6QVcMlZ6eVgagY6HuXORa47pX+dcD01WkaVMvUIKsE6xIJBUt+Eambv2a4WrgcV0tZOipsrU2uwLEGxHVHiBLjnlXaZaxS0w7BQ4Bg0FkwtFR4UU/SeON5XwFUWqYOg19NaK3+I1nn/4pw3YWP8Agt9ZOnzJQY2Gb4D9ZdS1cocD9oPA8JhsXUpUlajlawGrLYgEWN7jfuMpVall7iDsRO3+0nl8Y6oatAhatgGVwVzEaAhvd20nG+LcGxGGcitTanfvGh8VYaN6TKSJ218RjMUikZGSiMCMRjigRMUkZGAoo4GBGBjikChCEDs/FvZKLE4TEENuEqi4PgHUafAznvGeA4rBtlxFFqfYGtdG/hcaHy3n0gMOLaCY+N4eKqmnVAem4KsrKGU+YM5Yy2j3t32wUt50+ZbQnasb7NMDVACI9FmBAZKhNiBvla4Os57x7kXHYVj90a1IE2emC2n9pRqp/wCXm6uWJc98F6/7VaE9DTO1iCNxbUechNjTpGEcJUIxSUlSNmB7pBsMFQREFRuszGwW2g7mb8h/w2/k/iBW+dizZsyr2m1vkL27ppuTcA+Japh1VWZ1Or3y0wrA5zbu2HnOncs8GweBV3ZhWxGgzsAf5BsovNVsf6kab4zRh1P/ABTuO8o1sRjXr3SjSq5ahNiWzWAIVTa+2+g1ln4F7P6VK1RhktrnqtdtraLoB6zfUMWFOcJnqnW7e6vp2mFXFOxu5ufkPIdk6IpERpyWyXvO/GRh8HhaYslNqxHhZfyE9ftgX3aVJPgT/lmtesTuSfXT4SBeZaY8Jn1sanE2/Ch81M19aozG9lQ96raRvCGUUhA0iTdmJM0/HDTI6Jx0lM/+Yp7b6WB7G7QRqDaZeO4iFBCHXv8A075pMdSNGi2LxF0pJ2EjM7HUKAd2P/ePUvaK9R7Ll3FMJ0FepRvm6J2QHvAJsfUWPrMUz2xmIarUeq3vVGaofNiTby1tPGa20jImSigRikooETImTkTAhAxmKAoo4GQKKOKB9hG0865uLeo8xPE1dJCtWAW7GwAuTOXb0or2yKRFwSNtfjPZqSv6zRYTHZgW7yT6dnymTTxRvJEw2Tittmpw2mo1UEd+X6zGxnLuCrgirRpVAexqak/S8kMZ4zRcwc94bBqQW6avY5aSdZiezMR7g8TG48iGq1LRG5lxXnjhCYDH1cOjFkWzpfcK4uAT221HpNZwXCnFYhKC6NUuB26hSdvSZ3F1xOOxD4itZWqEtqRoOwADsAsPSevCcAuHrJVDlqlNg4y6ag7d+u06q7124ba30tHD+Q6a06grnNVW4FiditwQoO983wng3s9xYpGslA5VsTnCjqki5AbuGvpL1ivaFwjD2RFYNoWVKDFlNr2dntdvjKlx/wBruIrB0w9BEpsCt6t6jEEWN1FlHlrLPadN7wDhi8Pc0qyLetd2dW10Zgq/wjWb3ELROqL6ytYTjA4giVKTIzJSVa1IkB6bqNWAPvIfxLt2+GKcHWDEpUZCewEgfpNtY66c9piLbstgjImv4bgqtx0uLqr4fZVcfEGbDHYemEv9qr6D9jB2+ZhnFoRtPDEYylT9+oq+F9fhvKZxjEJcg4iuw7mNvkDNdh8re5RZ7dpNvjsBJJF4WnHc20lOWijVW8dB8NzMfBY3EYhvvCFUnbYAeQ/MmaCrxXD0RZ6i5vwUxmPqV0+JE1GO5sqsMtAdCPxaM/0svz85NpPKfOnReP43BYBL1anSVmF1RdW9B2eZnLuY+Yq2NcGoctNL9HTB6q33J/E57W+k1VVyzFmJZm1JJuSfEneQmO/otccRO/ZEUcUMygY4jAjEZKKBExSUUCBiMkYjAhCOKQKKSigdx4x7S8HQJVC1du6na3qxNvrKLzL7RsVilNOkv2ek29mzOf8AFYWHl8ZV1GHX3nLeAFpvOVqVOviUQUSqk3zMN7agXmma1rG5dsZL3txjrbfcnNxyog6NwaWlulW+nhaxl0+zcbIygUEbvKMw/wBUs3AaKog1A0sP/wAm0w+NsSlTfcHvE5OU27np3TPD9te/7lxjmhOK0B/Xs7UW0z0iBSuexgoBHk013DsFnQsLU0QFySthYC5+k71iQrghgGUixBFwfSc89oiUsPgqmWymoOhUdpL/AKC59JvjJMTEVct8cWibWlzepxmmPcps/i7WH8q/rMOrxmudFYUx3IAvz3+cwIp17eebsSbkkk7km5PqZGOKEMGxuDYjUEbjyM3mA5ux1H3aocDsqIH/AM3vfOaKEb0TET6vND2n4tR1qFB/Sov0eeeN9pOJqC32bDjzFVv/ALJSYS7lONY+jbYnmLEOb/dp/BRUfW5mvxGLqVPfqM/gWJHw2njCRdRBQlq5a4Bh8RRzuXLgkEAkDQ99t/WWDCcmYNzrTe3hVqX7PCY8o3pnwnW3NYp2XA+zXAVN1qbf+4f/AGTE437N8JTpO1POGCkresxF7G17oO23zjacZckijhMmJRGOEBRGOKBExSUUCMRkojAgYpIiIwImKMxSC+4fkJlDHMWemxWxUdh7rTIo8PxVMgbW26ttvKdkw+Bp9I79tQ5vkBMmpw+kw1QfCcP7rey9neOvUQoXBeMV0sta19rg6Hz7j8vKbiriXqOG102mXxLgdPUroZT+aOK1+HU0amVJd8oVxcEBSTaxFuz4zGKTM6ZzlrWOX4XiliglMtUYIqjMzMbAAdpnF+eOZTjq/UuMPSuKYO7X3dh3ns7hMTjnM2Kxgy1qn3YNwijKl+8jdj5kzTTqx4uPcvNz/I59R4UUcJvcxRRwhChCEgUI4pVEIQgXTkoAU9ypJbfKAdhpm07PlLlhMMCbAqTcndNbjwaVPk5fuBqAdtwO07n9Zb8Bw6kXDGmrG2/3f/DNP3S6PthaeE4bLY3RRbvbT4Paafm2pTVGJxFK4BO43CmxsSe2brhvCqNj9ynj1V189ZXueuG0qeDr1BQS6UqljY3HVPd4yzLBwqKXjh/JdKpTWpndw4B0amB8rkTaYb2YiodKjKPMH62mv/Kx/lP0bOZxTqeN9khRbiuxPjkA/OcxxVA06j0zvTdqZ81Yj8psplreemNqTX14wjim1gUUkYrQIxSREUCMiZORIkEDFJGKB9TUq9tp6NiTaaxcJiB/11I/uxeVv2jmrRwBYV3DF0U5Tl0J1HVtOKsbnT1skxEbbnjHMWHw9zWrKpHZe7E+CjU/Cch5v4+cdiM4BWlTGSmDvbck+JP0E0ZPzhOquOKuDJnm8a8EIQmxoKEcUAijhAUUcJFKEDLJyngqNa4qIGOa1zfaw8ZJnULWNzpWoTqOF5XwLNZkHo9wfpNzxDkTh4oZ1oda19Hbu7etJzhlwlReTGbLa5sG0FmNr/wy/wDD8XSDWNSxG4z1Lj0yym8nUlVqqmmDlqFRqQdDsDe8veDRL3yet2Px0mrfbb9rfcM4rhymZaqkbX1P1ErntC41TXC1VGV86FbdE1utoNezeW3huTLoB5WP6Sm+1FKf2NzsbX2G/ZuLyyxVTlSqPsy9a+Xvv4S7cKbUWZCP7V7+msqXLlbPQQ27Laj56iXThTNpb5FP0nk31yl1x5DL4pXYU7dNTU/wE/Qz584xUzYmsxIN6tTUCwPWOs+hOOIGTVlF9NSCdfSfO2Ko5ajqNQjsoO9wGIBv5Ts+FrlZz/I8h4GZPDaKvWRGNlZgp9fUdtp4ZT3H4TJ4ZRzV6YI3Yb3A8riehLmh0/AcCwwXRQvYfdHzJM2OD5WwLA3Sn5sEYw4XhENJTl/zE/lN9w/ADKcp9Ln9ZopPTotEOYc7ct06YX7OKfWcKcqhbXvvbxtNAeU8T4HyN/nLrz+tRDTFjbpASdOy9tptcAyEDRm0F72te3iZoy/ItSelrirZzqnyRjX92nf/ABIPq08OJcoYuhTapURQqAseuCQBvtO44B1/ZVdO8N+U03PbP9ixHUQjonA98na23rMKfLtMxC2wViHByJG09zQf8LfymR6B/wALfymei5H0Q2LA1zW9ZX+ZD9sC02F6aHN3XaxF/QE/GbMYISYwQkphis7dGT5E3jWtKcOWaH4JMcsYf8EuAwgkxhRNunOp45Yw/wC7khyxh/3cuAwwkhhljQp45Yw/7sSY5Yw/7sS4DDLJDDLGhTxyxh/3Qkhyxh/3QlxGFEmMII0qj1+XaAKhaSgsSNVvt5ERrymC1rUQP7hif9UsnHaGU0rC92P7N9ABPKkvW0uo8KYHx6003tMWba1jixG5DpikahanoL2+zn/fK/wbDIa+gVFGdbrTIBKsBci511nTmX+rG7MbjYn8rzmfBKGbF1FIJ6MsVA369r76fsia7TMxpaxqdrhw3CnNpUUj+AA/OWDitH+rHK5vbvE0uAwmovTcH+ATacZzJhz1rado02/syfRlLmPLmHY4mo7mzqSBmy3YFjqBbUX0v4S7Yanma73uNTamgHwDSn8sUS9d6hbYhBZntZwHNgdhrtvLxhlObWoCfMf7ZI9Po2+ASmdg48sw+htKlz/Rpinch8udCc34cwDHYm2W9/CXTBjq2uPgJTOeawYhG1GdATmJGpJPV22B07ZZSGh5XoL0KHM12FzqbXOulhoJduFYcb52Hx/MSl8r0fuEtb3R3228xLrwmkbjVVt53+s8m3dpdUeJ8xLlpE9JawvconZ5ymYXDU66CrTo02DjNqSDr32TeWfnMkYdxmTVSNiST3St8n0T9mQBhe2oObf0nT8e01mdNeSIt69sLwJ6hsKFFfN2/wBkxuYOGHC0HqNTpXANirNcHsPuD6y8cKwzA62+B/OaTnqkOjIYDIQb2uuyk7+YE9Cbzpz8YQ5cpEUksL3APuud+7WXLh5OXs27iPqZT+AOXoU2OUnIPxd3gZbeG2seqPQfrMKx0ys537R1BqU1LjrVFUgHsN/HwA9ZsMFSbTUZQLDUD9ZrfahlBQgdbpFHZ390y8AbAFXYDTtJO39nScHyY/c34/FvwKuF6oX+Y/kJrOO3dSjZet2Zr+ehEysFVNutU+g+sxQ3SV1UPm1PZ4HczDB/Ov8Aa5P4y0H9EL+AfCH9Er+AfCW9sJF9i8J7rgadadf8MmKNXuMtgojujFERsVQYar3SQwVWWvoY+hHdGxVl4dVPbPVeFVPxSy9CI+hHdJsV5eEt+Oei8KP4/lN90IiOHBjY0w4fb9s/CS+zgftGZ9fhNN9yw8nImurco0H/AOrXHlXaNjX8cQZUIIur9ovuCNPW08aRN77f4FEyX5BokgjE4kWN9XVhp4Ms2VDlZFt96xt29FSv8lmq0bnbZW0RGkkOagRe+nr9JyvhpFPidRdFDWIvfrEgaW8LE+s7NQ4UFW3SMR6D6TQY3kLCVMQuIDVadRQR1WFmB/ECDeYzSZXlDHwVAg7r36IR+c2vG6efDEWzG2wvJU+VqQN87332T9Jsf6JUrlZ3K93V/IRxnRyhxnlutfFPTdihpAIFCsRYMbElTvYgfAS/UHsx1PxqfpMg+z7B/aPtCmqtS1tKgy/AjebinwCmP23/AJpOE7XnGmPg26p2N+8j8xKd7Q6R6MHo0sWW56oPcDmv3zotDhqrszfGY/FuA0MQjJVzEOCps1jYix1l4bTnDl3LtNeiXrDQAad40O1+2W/hh2sQfP8A4Jl4DkTCUEFOk1VVXYdJf6iZ9HliipuHqfzD9J59viZN9N8Zq6V/mym5oMAAQRrYi9u2wvvaVrk4hqRVDnWmzoG16wDkXsu19502vwCi6lXLkEWPXt9BNdwnkvB4VMlEVAtydarNqd9TNuH496+/ljbLWUOEKQdvjmH+qaP2jUCcM5JGUAk2PdLpR4PSXYN6tf6yHEuA4evTanVQsrAqQGK6HfVdZ18ZaeUKHy/TVsNTY2UZRYa6eoMtfClAHVb5E/WZ2B4Bh6NMU6asqKLAdIx28b3mVS4bTG2b+Yn6xFJWbw5d7SaQXK+rHOg32u41A/5vPbA4dgo3sRfVR227zL9xXlrCYlctekagBDAGo41BuD1SJBeVsIAAtNlA7qjfrOXN8a953DZTLWPWlwKHL7rfyL+s9sJh26dL5wLndQBsd7Gb+jwWio0z/wA5MacIoKwcJd12JJJHlrMMfxr1tEz9FtmrMaQ6CHQTMywyz09uV4ZY8snaMCBDLHlk44EMseWTELSCOWPLJWjAgRywtJ2haBELJARiOAxtIAT07JEQFaTI0iEkYHmBJCAjgNZFxJiJpBACSAgJIRITCQAnoZERAFEHEkImlEQJJRCMQIMIWkmhAAImEkImkHnaFpKEojwAXweHJ1Jo0iSe37tZn5R3TA5e/wDR4f8AuKX/AMazYTELKO6GUd0cICyjuhlHdHCAso7oZR3RwgKw7oW8I4QNXieN0KbKCwsXakW/ZVlRmNz/AIT5W1jr8bw6FQXzGoSoyqW2FQ3Nuz7tx5iRrcCouXZi5NTNfrAAB0ZDYAdzHU67a6CRpcvUVcOGcFWDL1xZReqco09376p49bfQWD0pccwzIH6QKGQVLMCCFNrXHfqNPERtxrDgqM9w7Ml8pygopZsxtYWsfUHuM8KPLlBTcZibIpJy3PR5cpLZb6BVG9rDa+s9K3AqTlsxc9IzMwzAAhlKMtgNiGOu+2ukB4jjmHWmXDh7AtlG+m97+762mU+PohVcuMtQ5UO+Y6nq230BN+4X2mAeXaJD5mdunGWtdgelGwzi1tBppbTe89/6ITKih3UUT93ZhdVIIKg21XKba32FrEXgB43hRvWTu+mvlqNdtZl0sTTcKVZSKgJXUda29h4ds19Hl6gpv1yQopC77U1KlUGmwyi3bqbkzPw2ESmoVR7pYgnUjOxZtfMwNdjOYqFIMXVwEq/ZzdQpzCmKlwGIuMpFransBiqcxUQlSpkZkoO1JippHVSwbTPddVIs1iSQACTJ4jgFNy5apUJqsWPWUe9TFNlFl0BRVHf1QQQbkyr8DpuWLVKt6g6NjnAvT6/3egtl67eOu+ggLE8cpp0uWm9T7OAz5QgABz7F2W9ijAga3075AcfplajLSqN0BKsFNIkFQxa4z3S2Vvete2l7ietLgOGQ3SmEB6O6rop6J2dNP4mJPfYRYvgiVGZmqVMzZdbpoqsWCWKkFcxvYg7DsECFfj9NM5elUUU0FW+VDnDE5QiqxbMbNYMBsdrTbixmuxHBqFQOKq9IahzFmsWB6Po7r+HqkjTvPfNhTQKoUaBQAPIbQHaFo4QFaFo4QFaFo4QFaFo4QFYQsI4QP//Z;" vertex="1" parent="1">
          <mxGeometry x="910" y="310" width="265" height="190" as="geometry" />
        </mxCell>
        <mxCell id="zQAnH2hgNNJ8GHYaH6ZK-31" value="Permisos" style="shape=image;verticalLabelPosition=bottom;labelBackgroundColor=default;verticalAlign=top;aspect=fixed;imageAspect=0;image=data:image/jpeg,/9j/4AAQSkZJRgABAQAAAQABAAD/2wCEAAkGBxMSEBUSEBIRFRURExcXFRYVFxUWEBUQFxgYFhUVFRgYHiggGBolHRcVITEhJSkrLi4uFx8zODMsNygtLisBCgoKDg0OGhAQGy0lHyUtLTctLS4tLSsyLS0tLy0vLS0tLS0tLS0vLSstLS0tLS0tLS8tLS0tLS0tLSstLS0tLf/AABEIAOEA4QMBEQACEQEDEQH/xAAcAAEAAgMBAQEAAAAAAAAAAAAAAwQBAgUGBwj/xABGEAABAgIEBg4IBQMFAQAAAAABAAIDEQQSITEFE0FRkdEGFCIyM1JTYWJxgZKx4RVUcoKhorLBBxYXQtJzk8IjY6Pi8EP/xAAaAQEAAwEBAQAAAAAAAAAAAAAAAQIDBAUG/8QAMhEAAgECBAMFCAIDAQAAAAAAAAECAxEEEiExE0FRBRQiYZEyUnGBobHh8BXRI0LB8f/aAAwDAQACEQMRAD8A+urYxCAxNCbGZoQEAQBAEBiaEmUICAIAgCAIAgCATQkxW50uLMyhAQGJoSZQgIDE0JMoQEAQBAYQBAeTw7I0ohzi1smzNtli86rk47zvSx9DheMsFF0Vd3fpqMF0/FRHAPc6GATbPJlAyKaE1Fya9lFMdRdRUoySVR72L1H2RzcK8Oq0mQcDOXXYtY4l3WZWT8zmqdnwUZcOd5R3VrfGxtH2QERCxsOtJ0pzvbnlJTx5ObjGOzKvA04Uo1JztdaK3MjdskNsoW9Jnuv26FXvUrNqO3mars2mpRhKprJaafk2Zsjm4ThyY4yrTtnoUrEu8bx0exnLs+GSeWd5Q3VtPUj261lJiu3UgJkAzDrBoRVFGc3bYtKhOpRoRvve2m3z5ktE2QFzhOFJpMptMyOuxTTrym1pp5PYpiMFTpRfjd11Vr/Bm1Mw/ViFkOHXq3mZvyyACmVeTk1CN7bkQwNNQjOtPLm2Vr/NnQwbhBsZs22EXg3grWlUVSOZHLicPKhUcH69ShTcOFkR0NsOsQbLb7JmySxdeWdwjG9jrjgaapRq1J2T8iSHhsOhOeGEubYWTu555laOIcoZktehWeBVOsqc5pRaun5f2RULD9Z1V7KpImJGYPMVEK7cnGS1t1Jr4GMaaq05Npu2qsaUXZCXuAEIylbIzM8krFFLESqa5dC2JwNKg8rqeLTly6swzZGawD4VVpMpztHwULEyUkpRtfzJfZ9OUJSpzu4q+2j+DOvS4Aiw6pJk6RmPgumcFNWZ59GtKjPPHc8q3B5NJMGubMvZNcFOhF1ZReyPcr42rDDU6itd76HQouG3NIhVC6q4tJnM1QZTlJbU68pPKo6JnHXwVOnDPOerV0rczeLsic1xnBk0GVp3XgoliZR1cdPjqWpdnUqvhhUvK3TT1KlPwgRSg+HMza2QnfMXKspSVd5VfQ0p06csDHiOyzPlc6lGw3WY+cM12C1gyraFdyi9NVyOSrgYwqQWdZZbSIaHsgrPDYkOqHXEGdvOCFEMRJzUJK1/MtWwMFRdWnJtLqrehWwfhFsPGuNax1jZzmSZXrOnWjCEpW5m+IwlSrWhC/8AqtbWsizRdkM3ARIdVrjY6ZI+IWkcRJSSnG19jGeBpuEp0Z5su6tb5o7gK6TzAgCAIAgPPYRweX0sFzZsdL4CVq5uE3WcntY9HvUVg40ot5k7/LU6MXBEPFvaxoBcJT57wtalNSg4o5qFd060aj1seaZg54cGGGd9ac45lyQoSuk4rTmepXxtNxk41JO+y2t8TrYOoLmUpxc3cyMjoW9KnKM5N8zixVeFSjThHeK1K8DB0SccFtrgauYzM1nGjNU5x5s6KmMpPEUqi2ilf6kUTB8Q0dgDTNrySMsjKSmVGTVNdNytPF01Ku3/AL3t9SdtBibYcQBumWE2t3oEipVKanN9dissTSdKjB38N7209GUNpxA8VYZa4G8b3sWMaE8ydrW53OueOpcOUc7lfZNbfMvRKNFgRXRGsD64PY43/FacOpTlJwV0zn4+Hr04Kq2nFW05ot7G6G9lZzxKtkW1Ck6cbPc5cdiVXq5orRaI59KiubTXOY2sRk7FzJzVabgrnoyjRlhKSqtrfVakUPB0ZzHvAIrGZFxItJTu8+Hbne7IWPouvd+yo2Ttt5mtEoUTGNdUIF3arU6MlPNZJWKV8XTlR4eZyakndrc6GB6BEbCitlVcRIHn5lelSnGi4bMxxGKpTxaq7x0OS6gRLsWZg2nOsFQn4fCtH6nbLHUf8izt5k7K2iPaUUbhvUF6J8+cZlEeKaXkbk2z7JLnp05KrKT2Z6FfEQnhqdNbrc1wVQntjxS4SnWqnJaTJRRpShmvzZOMxFOq6eXWySZyIuD4s3NLCXT3181zPD1HG1lfr1PSj2hQjUU1J5bezbRFjasVr4bxDJqtFnOL5reVOoqmeK5HFCvh5YZUZtrVu6Qh0GNEMWJItLpmV05mZAVOBUcZPmzXvtBVaateEFa/n1K8OhvBa4sIDSKx7b1EKUozjNpJImriqc6M6Sk5N7afRElDohjY0NvnWGY2lUpU+JTkl1NsTiFh8TByWmRJ/UkiwY0XFwsXVEOyf3K24dSpKOdWSOTj4ehTmqLbctNeSPWQmyaBmC7DyDZAEAQBAEAQBAEAQBAEAQBAEBW2gzG42W6VVBJ3W5pKrOUVFvRbFlWMwgCAIAgCAIDMkAkgMIDSNCDmlrhMESKiUVJWZeE5QkpRdmitg/BrIM6k7c6iMFFWRNSrOpLNN3ZcVjMIAgCAIAgCAIAgCAIAgCAIAgCAIAgCAIAgK9Np8KCAY0WHDBMgXuawE5hWNqApfmaheuUX+7D1oB+Z6F65Rf7sPWgPiGyLC0cUuOIVLjmHjXVCyM8sLCZirJ0pdSgG2xnC0Y0yBjqXGbDxrS8vjPEMNFprTdKVmVAfbfzPQvXKL/dh61IH5moXrlF/uw9aAu0KnwowJgxYcQAyJY5rwDmNU2ICwgCAIAgCAIAgCAIAgCAIAgCAIAgNYsQNaXG4BCSvXiHKwc0iZds1TOWyicTjM7p1pnGUTicZndOtM4yicTjM7p1pnGU+SfjE5xpUEOIMoVkhIWuM8vMpvchqx4BCAgCAIAgCA99+D8YtpUVrSBXhZRMEg9fWl7EpXPrk4nGZ3TrUZyconE4zO6daZxlFaJxmd060zjKZrxM7NB1pnGUsq5QIAgBMkJN2wnG5p7ZD4XqMyJysw9pF4kpTuQ1Y1QgICvTKdDhCcWI1k7pm09QVZTjH2ma06M6jtBXNaJhKDF4OI13NcfiqwrQlomaVcJWpK846ev2LS0OYICCncGez6gj2JW5tCh1nhsyJzulOwc4KxNS56NHHifJ/FAPRo48T5P4oB6NHHifJ/FAfHvxnoD9twQxsR4xNpqzkaxs3IVolJHz7aEXkovcdqVio9HxeSidx2pAPR8XkoncdqQD0fF5KJ3HakA9HxeSi9x2pANoReSi9x2pAe0/CnBkV1MJqRW1Wgk1atla3fBQy0T7d6NHHifJ/FULj0aOPE+T+KAr0ui1KpDnGZlbVlcTkAzICFATrYxCAICxQYUyXnIZN5pXnrvWcmaRRdVSxSgU2HGc9jZnFyBIG5n0TnCpCopNpcjarh504xlPn6lcZjeDI9YXSnc5GYiOkCcwJ0I3ZXJirtI+dUulPivL3iZOc3DMABcvCnNzeZs+1o0VSgoQWiM0cMDw5zX+4Q108mdRF66l6kW14dz12CcMw3tDC5zSLBjCKzu2wEr06GJjJZW9fM+bx3Z1WEnOKun0W3yOuus8ogp3Bns+oI9gtyah8K33vBYmp1kAQBAeew9shNHi1BDa7cgzJkbZ83MuWtiHTlax6uD7OWIp53K2vQ5v5ydyLO8dSy74+h1/wsfffp+R+cncizvHUnfH0H8LH336fkfnJ3Is7x1J3x9B/Cx99+n5H5ydyLO8dSd8fQfwsfffp+R+cncizvHUnfH0H8LH336fkfnJ3Is7x1J3x9B/Cx99+n5O/sfwmaRDc8sDZPLZAzyA/ddNGrxI3PLxuFWHmop30udRbHGEBRwpcz2v8SgKKAnWxiEAQFugGbCMoJGm0fAhZSWprFnFiUKl1jAEScJ5Jxh37Wfub1ma43CrfJfTqewq2Esqrj4l/ryb5M7lBobITAyGJAaScpPOumEFBWR5tatOrNzm9Sm87twy1vgblvHY5pbkcZoLSHXEEHqyqJ2yu+xNNyU04730Plux6h0huF4zIrnOhw4b3NmZsqPcMXZnlPQVw1VT4d4LmenSq4h1mqknseybvZOad8WzcGTPFcALJE+K5bI688jo4Jo7TCFaGAcoc1tYcxlZPqXfhoRcXdczzsVWqRkrSa06nSAlYMi69jgbbd2QU7gz2fUEewW5NQ+Fb73gsTU600BiaATQEMWiw3mbmMcc5AJkquMXujSNWcVaLaNfR8LkofdCjhx6Fu8VfefqPR8LkofdCcOPQd4q+8/Uej4XJQ+6E4ceg7xV95+o9HwuSh90Jw49B3ir7z9R6PhclD7oThx6DvFX3n6j0fC5KH3QnDj0HeKvvP1JYMFrBJjWtF8gABPsVkktjOU5Td5O5IpKhAUcKXN9r/EoCigJ1sYhAEAa4tNZt9xBuIzFQ1clOxaFOGVruyRHiqZWXzIijUkusAqg38Y81lylR6kOXQiAlcrlAROzOjV1ZkptO6OZSGAOIC8mvBQm0j28PNzpqT3IDDtMzMWEAi4jnzLK5rY6VBG57V6OEXg+Z5eNf+T5FhdRxEFO4M9n1BHsStyah8K33vBYmpcpdHLiJSsCAg2g7OEA2g7OEBYocAsnOVqA3iNdklpI+yAjxb/8AzjqQG7YJyud2OKAziOk/SgGI6T9KAziOk/SgGJ6TtKA2EPndpQG4QFLClzfa/wASgKCAnWxiEAQBAEAQBCTm07DcKHMA1nZm2285uC56mKpw53Z6GH7Mr1dWrLqzzlGw06sS/dTNoyt6uZeVKcm7s+h7nTyKMNLHUZTYbari6bXOlKycz8bFpTccyzbHFUo1GnGOkj0LRZZcvYSSVkfOSbbu9wpKkFO4M9n1BHsStyah8K33vBYmp04gORAaSdzoBJ3OgEnc6ASdzoBJ3OgNoYOVAYcDNAYqnnQCqedAbPByIDWqedAbQwcqArYUub7X+JQFBATrYxCAIAgCAIDgbK6WQGwwZVrXdVwHjoXDjqjSUVzPc7FoKU5VHy2PLhkjZoyLzLn0SVmaxoU7QZOFx+xzhSnYiUb7bmjYcgGm2d+cuvmpvcjKkrM7+wvDmNJhTdZZVdv2PF7T2L0MNOUZZJbPY+f7RpUqlPjU1Zp2kv7/AHU9au88Mgp3Bns+oI9iVuTUPhW+94LE1OnEaSgNMWUAxZQG7W2IDTFlAMWUAxZQDFlAMWUAxZQGz2lAa4soDaG0hAVsKXN9r/EoCggJ1sYhAEAQBAEB5XZY3/Wac8PwcdYXmY9eJPyPpOw3/jmvP/hwY29Msgn2hcS3Palsa4xpEy8CydpA0KUmUc46XZqDMGUzKRB+ybBO6O3gbBTA9tKtESWQya5uSsMuVa06ko2PMxijObXlZ+f/AJyL2Gdl0KiyEQFz3HeMlMN4xncvToVZVFdngYqlGlJKLOVG/ESjuaRiownLi5CDnW7OZM9VsdwgKRUitY9rXVpVwASJXjmWTVjVO516a5wIqzuyKCStXidJAK8TpIBXidJAK8TpIBXidJAK8TpIBXidJAK8TpIBXidJAK8TpIBXidJAWaE5xJrTuyoDGE7m+19igKCAnWxiEAQBAEAQHntl0OyG7nI0yP2XDjo+FM9vsSdqko9V9jzZXmH0hUo1Fa0Cq0Tzn7K8pXMYU1FaIsYvOZ/AaFW5rl6m9J2RijQSwCs//wCYyDndzBdOHpOpvseL2nVhQd1u+X/TxdSLHc99WJEde8gFxHXK4L1fDBJbHznjqNvc9VsV2IF7NsUkENBBZDItfaN07o82VWexWKPptCEojQMgPVKSxNy/ELi8hrqoDQbp2knUgMPY8CeMzftGeWdAbYp/KfKEAxT+U+UIBin8p8oQGr2PAnjPlCA2xb+P8oQGcW/j/KEAxb+P8oQDFv4/yhAYY1xE6/yhAZxbuP8AKEBtDnMgmd2SSAr4Tub7X2KA56AnWxiEAQBAEAQHL2Swa1HcRewh3ZOR+BOhYYqOakzv7NqcPExb56ep41wmJLxT7Bq5lCTn4Two2ECAQX5B9zmXRQw8qj8jz8dj4YaPWXJHlYr3PcXOmSbyvWiowVlofJTdWtJzd22fUdj8GGYEJ4hCGQ2QBlWBnK8XzvtzrzKjbk1e57VKCUFeNmempTZQpZqviF6cVaFjxpyzTbXUnofCt97wVCxfA/1Hey3xcgNaUzc3uvbl6QQEmJ6TtKAxiOk/SgGI6b9PkgIqVA3J3b8mXnHMgJNr9N+nyQGcR036fJAMR036fJAZxPSfpQEVFhbkbp2XLzlATiHzu0oA0WnsQFbCe9b7X2KA56AnWxiEAQBAEAQGsVoLSHXESPUUJTa1R84p1eG9zGta6q4gbqRkDZNeHOCUmj7SlWlKnGSs7pFUMiP37g0Zm36VGi2Re0pe07fA3ZQYQ/aD12qM0iVSpLkiVsFgua34KLsulBdD1WDsACbIhfNtjgAMt4mu+lg9VJs8LFdrO0qcY66q52qdwZ7PqC9B7HgrcmofCt97wWJqXrMY6fFb4uQGlLayr+29uXpBAblsPo6UBipC6GlAYqwuhpQEVKZCqHeZMvOEIJakLoaQhIqQuhpCAVYXQ0oDIbC6GlAR0RsOoN7ly85QFgNZ0dKA2YLTJAVsJb0e19igOegJ1sYhAEAQBAEBzNk8Bz6HHYzfOhmWS637ID4hM5ylit2Yc4gTmbEsTmfUr+kWcY/FRoPEBhBvGPxTQeI+u/hlTHPohY8k4p5a2d4YRWA+JUko9PTuDPZ9QR7ErcmofCt97wWJqXiZRCSDItFwJF5zBAIrwRKTrx+12Qg5kBvjG5j3XakArtzHuu1IBWbmPdOpAaxJESke6dSA3m3Me6dSATGb5TqQGbM3wOpALM3wQGsFgDZS+HOgJJIABagKmEt6Pa+xQHPQE62MQgCAIAgCAgp/BRPYd4FAfApIUNX3HqQHBCqaGQgPsv4TxNxHbzsOkEfZWKo9vTuDPZ9QR7FluTUPhW+94LE1LlLpBaRKVoQFfb7swQDb7swQDb7swQDb7swQF2jRC5oJQGKXFLWzGdAU9vuzBANvuzBANvuzBANvuzBANvuzBATUWlFzpGSAYS3o9r7FAc9ATrYxCAIAgCAIDSkQ6zHN4zSNIkgPgOE2bXjPgxSA+E4tdK0TvEuySXK2KcWmskZGdnOlxY5LVUuYmgPvGwHY++jMdEe9rsexhAbOwSJtJ61YhI9LTuDPZ9QR7ErcmofCt97wWJqdOI2eQHrQERhniM0+SAxUdxIenyQCo7iQ9PkgNhDPEZ/7sQEzRIXAdSA0pBk0mQMshuQGkNu5mWCfNLTagMH+kfk1oDE/9l3/AB/yQCf+y7/j/kgMj+kfk/kgJIbRxZaPsgIMJb0df2KA5yAnWxiEAQBAEAQBAfA/xMh1cKR+lUdpY3UoZJ5dQDLUBqUB+l8AunRYBzwWfSFYgnp3Bns+oI9iVuTUPhW+94LE1OnEGcEoCAsHJu0+aA1xbeTfp/7IBi28m/T/ANkBI1g4jv8A3agJwgI6TvDbLnnL45EBiBa2x077Z1st08qAyWu4w0IDFR/HHdGtAKj+OO6NaAyGO440BAbtBymaArYR3o6/sUBzkBOtjEIAgCAIAgCA+H/i3DlhInjQoZ8R9lDJPFqAZagNSgP0rscZVodHByQYf0hWBZp3Bns+oI9gtyah8K33vBYmp0orhldLQgIiRyh0t1IDFnKu0t1IBZyrtLdSA2Dm8odI1ICQRm8YaUBrEiMIkXDSgAeyUphAanF9FAYqwuh8EAqwszPggAELooCWGW/tl2ICDCO9HX9igOcgJ1sYhAEAQBAEAQHxD8XYs8JEcWEweJ+6hknilAMjKgNoMOs5rR+5wHaTJAfp2jQ6rGt4rQNAkrEGlO4M9n1BHsStyah8K33vBYmpcpdHLyJEWBAQbQdnCAbQdnCAbQdnCAbQdnCAbQdnCAbQdnCAbQdnCAbQdnCAbQdnCAGgnOEBUjRIbTIxGk5mzc7Q0EqjqRXM3hhqsldR089PuW8ExGuLqptEgQQWuGaYIUxmpbFalGdO2bn8yfCO9HWrGRzUBOtjEIAgCAIAgCA+A/iTGrYUpHRc1uhjVDJPMqAZyIDubB6Bj8IUdkpgRWvd7MPdnwA7UQP0QrEFencGez6gj2JW5NQ+Fb73gsTU6jh19iAjLfb0+aA1LP6mnzQGKn9XveaAxU/q97zQDF/1e95oDOL/AKne80BXjUuEyx8Qg5q03aAZqkqkVuzaGHqz9mL/AHzNBSy7goUd3O4mG35rfgq8Rv2U/sad3jH25pfDX7f2YcyMZV4sOECZACbnTzVnSE+xHne7SJXBXsxcvp9F/ZUpZgsNWK6NGcHBtUk1axEwJWNFizlkXtXf76HTSVaavBKK625fVmzKa4ObDgQoLK0MvEyJWGRbuLJ9qKbulFJafuxV0Y5XOrKTs7fnU3oNMrxIUaVXHMfDcMldhmLctzlMJ5mpddCK1HJCdK98rTXwf6jo4R3o610HnHNQE62MQgCAIAgCAygPzhstjV6fSnZ6RFHYHlo8FUk5KAyUB9S/BnAnCUx4v/04XVfEd9I7CpQPqKkggp3Bns+oI9iVuTUPhW+94LE1Oq5s8+khAaGCOl3na0BjEDO7vv1oDOJGd3edrQFelxxDqgNe9zzJrQ4zMhMkzMgAFSU8ptSo57tuyW7IiaQ68woU7r3v+wnpVf8AI+i+prbDx2vL6L/rKMaJBDyyPGjRCCA7fNhtcbg6oAB2rNuF7Sbf75HRGNZxzUoJdNm38L3ZDAwo1pqwoDGVnPY21tfGNB3zRbKy+aqqqWkY2NJ4WUlepNu1m97WfR9SvCwtHitc1r5ufBLgKtQteDa2Gf3WTVVVnJWT5ftjWWEoUpKUlopW3vp1fQkouDhFfVa2M2GYe7MStMRpiq5la2sLbrFMaak7K9rc+pWpiHSjmk4uV9LW9nmnbkTjA7jBeKTEYHuih9ewtk0ACYMhaAdKtwnled63Mu+RVWLoxdkmrfExiqO6qCYkcsnLFiTQDKbdxJsrLppaD6v4fgZq8btJQT6/fW7L0OA95hjFCFDhOrAEgvJAIAk2wC3OtEm7aWSOeU4QUnmzSkreX1LeEd52rY4jmoCdbGIQBAEAQBAZCA/MeFHTjxjnjRDpeSqklZAT0OiuixWQoYm6I4NaOcmSA/SGBcHNo1HhwGXQmBs8pIFrjzkzKsQXUBBTuDPZ9QR7ErcmofCt97wWJqdZAaOYTc4ju/cIDTFO5R2hmpAZEI8d2hupAU8Jiq6FEnvIkiei8VPEtWVTRqXn9zqw/ijOn1X1Wv8AZSw5QYkaOwQxLFsJDzMBryRIiV53NyzqwlOStyOnB16dGlJy5vbqrfkQsEl0QxKQQA5rS9gduDFbZWOcSAMkVJt5p/rEsWowUKO6vZ21s+RLR4lHhRHuYa74jpmo2uQcoBaLB1lWTpxba1bKTjiKkIxkrJLm7fckhOeABCo4YBORiECU7yGtmfBSs3+sbfEpJQvepUu/L+3Yy6HEdv4zpZRBaGgDnLpnQrZJPd+hnxqUfYh6u/2sYZRYANaoYkv3uNfRWMz2BFSiuREsXVasnZeWn2JW04SmHAWWNqkWZB1rQ57l5jwUBXwhvO0IDmoCdbGIQBAEAQBAZCA/MeFBKPGGaNEGh5VSSuEB9D/B3AeMjvpbxuYG5ZMWY1wtPY0/MpQPsCkgICCncGez6gj2JW5NQ+Fb73gsTU6yAIAgCAhpdHERjmOucMl4N4I6jJVlHMrGlKo6c1JciqKJHNjo4AHEYA49ZJPwCplnzkbOrRWsYer/APDZuCYd7w6Ic8Rxf8DZ8FPCjz1+JDxdTaPh+Ct+S4xgaJNAAzASCuklsc7k3qzZSQRmAzK1ugIAKOziN0BAIcFoAEhYJXBAbhoFwCArYQ3naEBzUBOtjEIAgCAIAgMoD8/bJtjtIZTYzTD38SLFZa22EXucHX5sihknIo1DdWFZtiWIbPtf4c0ujbVbAo+5eybojHb4vMqzxO9qkJnrEAQEFO4M9n1BHsStzaG8tcHAAynYTK/sWJqcrDOzkUaLinQC41QZh4lI9YQFH9S2eru741IB+pbPV3d9upAP1LZ6u7vjUgM/qWz1d/fbqQD9Smerv77dSAfqUz1d/fbqQGf1KZ6u/vt1IB+pLPV4nfbqQD9SWerRO8NSAz+pDPVoneGpAP1HZ6tE7w1IDP6jM9Wi94akB1MF7IhTIbiITmVXAbogzsmgLKAnWxiEAQAoDEzm+KAxM5vigEzmGlAeY2TbE9uRRELy2qwNkCJWEmdo50DRxnfhtmjHQEIsWcHbA3Qnh2Ntba1zZtiNPMbiOYhCbHtIZeGgOAJAtM5TOe5CTas7ijT5IQaRWlwLS0SPP5ISRARMrWnnrS+ypkL5jV0FxtMNh6yD/imRjMhiDyUPSP4pkYzDEu5OHpH8UyMZjOKdybNPkmRjMjOKdybNPkmRjMhi3cRmnyTIxmRnFu4jNPkmRjMKj+I3T5JkYzGar+K3veSZGMwqv4rdPkmQZkZqv4re95JkGZANdxRp8kyMZkZquzDT5JkYzIyWuzDT5KMjGY0k/it73kpyMZiyrmYQBAEAQBAEAQBAEAQBAEAQBAEAQBAEAQBAEAQBAEAQBAEAQH//2Q==;" vertex="1" parent="1">
          <mxGeometry x="910" y="545" width="225" height="225" as="geometry" />
        </mxCell>
        <mxCell id="zQAnH2hgNNJ8GHYaH6ZK-33" value="" style="shape=image;verticalLabelPosition=bottom;labelBackgroundColor=default;verticalAlign=top;aspect=fixed;imageAspect=0;image=https://208f1686.rocketcdn.me/wp-content/uploads/2021/10/logo-mundo-de-suenosRecurso-29.png;" vertex="1" parent="1">
          <mxGeometry x="870" y="840" width="536.78" height="667.5" as="geometry" />
        </mxCell>
        <mxCell id="zQAnH2hgNNJ8GHYaH6ZK-34" value="Ley de ProtecciÃ³n de Datos Personales o Ley 1581 de 2012" style="shape=image;verticalLabelPosition=bottom;labelBackgroundColor=default;verticalAlign=top;aspect=fixed;imageAspect=0;image=data:image/png,iVBORw0KGgoAAAANSUhEUgAAATQAAACjCAMAAAAzSxLiAAABZVBMVEX///8jmtbM6vuCxuj81rkgTXsac6EoOEwSTWsJJzYZKDmZrsDZ6vi/3eqazOMARGWMn63Q7PwAHzBRX2eSzezc6/IAP2EAktOHyenFz9WCwefT8v8jnNkAkdPi8f7/17YAa5x4oMEfMEW41OIpbJoEGi5tfo4AABsHX5J+i5gZRnYWOk0fLkAAPnF3wuYaJDMSUHgAABQAAB8AN1wzQ1YcfK0AECZUrt6/4/hcfqBXrd7l5+gOITmhzerL4/MVJj1EVWdytd8ehruWnaFppcn//PpweoBYa3ypw9RleImYt80AWY5rm7qxtrk0RVDW2dursLRAjbbvzLL93sb+8ejq08E6Y3yFlKJzkq3O2+WhvdEKWH1ETVImMzqMkZUNOlAXZY1kb3YwXopQdJlWepFTncWCr8y0w9BAZ46Hu9XUycDGtajWtpyt1ejl4No7g6sALFWemJS6qp4WebLHw79ie5oAK2g5AQfJAAATLklEQVR4nO2d/V8axxbGF1GCohgMuKAENhBFaaRVI3JRMBiNaLWGpMaStmnaVG3SS+29be/ff2d29mV23nZXkB0/7fNLdAXd/eY5M+ecnVkU5Y4pN9K3ErmgL2LI6h+Zji3oyxiqXGnMG0q4vDDoCxmihCgAsGJs+eDZ06fPDhZjRRdwQV/K8CRE1l4sbO8UCveACoWd7Z3DtyJsf5sI5U8CifnY022dl63Czr37CT62v8tswCUw3366c4+hnXtv5//uVuNd/sjhNgsZ1PbBCA910FczJHGYFZ8WeMzg8FbkmC3oqxmSOKG5I2AGzdZmUwv6aoYkps/a3NC0qLEHtqCvZkhixiZzBiCoFVnjWtBXMySx/HKPjM3CDh2uheY/0GzNHxKAdnZePH++XCDsVzhgBGjQVzMk0cH5lhjQtp+jV74kj8foAA32WoYmGtpTgs2pkpu8umrmlC3Sa/84zWQWc6LZPlFy52vVaml5Usk4vVY4pwI06KsZkqgRjTDaUyW3vDYBVD3MKQ+cox1ttaCvhqPu0eVRd4C/jzRa22m0nZdKd3VCV+lKOak6f0iNagM8scGpG9GgIv6x5SabSJMpx3HSaMTUuX2au19F0BaWc6drEw6nURPooK5zkCouRZCWil7fkmo25uoh1alQfa7RRPBIaMRgD6CdLxjQFnNbIFAdP70D4Wkx80it2ahDQmxBdI0mCa1I5hUAWvVzXRBa6XMHtZ12QnZoGDN3aikRMBvcQ2JIizmj84tyN/foC0Pf5LZWvniCUyucyw7NwUxMLZUMufEysRHRueiANr30ZVd5tGToWEl9uTSLe61wOC83tLaTmYBaI+tqMS60AwLa0pePvzSh6V9CaBa1wjO5oVHMONRSc96JMaA9w6EVDiKPSR1AaLbXpIbW1ChmLGqT9Yc+iDGgOVLbwmKO0jKaS81XSA0txGAGqXXfXh4fH1++1RO3ybofk3mCNknIhDZxB6BNPjQwfTv7HqemWVq6bvtH5haeAmgT8odnQzWYfffy+2+ZpgMAIxuhbL/QDjxDm5B+IjChrW4pp9scaFC7/UJbZENbqHYpaBOypxw9dQMyiZZOlHfTAmgAmz+zEdCcjSELWrNUYkCbuFe4L3Vy+xDOBO9nxqtrC0JmfqkR0JxllAUtd385x4A2IXkZ1cruRiI/jI+Pz/CGNEsbfqiR0OaZ4cmDtka8WzJoSii7++0MgPaZGzOgfqDhg5o9phWv6IlgYuJzch6QDRqgNg6N9t6d2Ubl5tAc94nFs+fERFX+JuR7aLQfPDALp8M3huZIbwuH3IoAddjIN0sHbX8BGs0LM6gbQ3PMn7OPKOkFu8FM/hsrLyC0qEdm4bTH2YCC5qykZtdJTYiMJhu0rVXAbAHOoV6YAWr1G0Jzrn558rlT+NQp/83i78CIVr2fdaFmMfNKjYZG3Ft5MsHRAjV1SgftpAQGtO+VVEhIDWMGqG3eDNrIiKPVwaO2IP8CGJhulDKKklIF0BzMvFFjQpvacadWkn+p1fMqMNoD8EUTFaFsZqEKQa3l2ixiQiMWqLGoldhLIYPmhGsfBOf46pYC+/98ZtnQZpqkdiNogFpBPK6t3YHloz+CWWDhBfxqjt3CjRglZ5hQ2q04YEMbSUw9FVBbmLgDC5VPYbqxtg+/bPGgoTK94pcaBxrAtohvvHBQW7sTS+K/gukGWlrHg2a0NloktHBYTE2t8ajBzRcFBrXqkzux+eJkDc6d6GsONLMdtElDE1NTG9wtK4n52DPbbYjawtqTO7LNBxbqayfo6znmRGC10BhOAxKVVC3RBrH59vI9uKGsANcqL1TXFg7bwn14wXLC9Q6mG18Z3zRCjJTDbjtSY5o7NQEDILh18fzw4Nmzg8Nl162L8hhNLzpXT43vmozkFmvVsplhJZUaqm+2gDbr5mqPObe9r543ycrDTHkAonPmR+tbGhrGrJ4WUlPryVrCUi2p3ygVjGr+JBGzzKqZ1yLVyZkAvyXAiU6dmqq2ao4xHHKDJYPacPWQFwXIiNL3MN14Z38fym7wmKlkQeCgtlljoEnUdAM2Riz/OX5KiE9sUiKbKcpLMAuMV+3vG8AaN2EWTrMT0sQI/AX2QiN8hEsQzaVkcBh8aR8yW3tpHwBXh1utg8VmS8QszPOI7jVbGLREgyj31eA4+BLscc98b38/p5+9iUzrpMObxiy4GRYy6/Fz2DAPGtXFbAUHwof0dAO20Qyl9NVnptUgMxB34UqrUkkLkYXDohSWDY0yWij0UKqRiyfY49bbaIZaxtljzLxJlFYkWmxojIz4LljtpORMN3LGMke95e3CLG1K/45blpOWsqAxjAaslhKcrSSCdTpqoyHNmScPAlTILJ3e63z4aWxs7KcPnT3ITcBsZKTGhMYsveS3Guxxj5ewA/bFZSNCn3XGyuXyGBT4t3ztAm2EAY1ptDswgW7B4DTaaLoa2NlzCyZgs70xBMxUudzxD41d46uN4Hh4Euxxm200XfjZC5hdrIyRWhGNaazwTCR5t2QCw+FJqMd9Yh9o4tfBbpzpPqOZja34dVqCgmVarRkcEQ+CPW6rjQbVwk+eH55lmpmL02hofKPJPRXoPW6rjQblvA6e0T4MBBoPmeRTgb6w6kfsQM0JjROfFUZw+oYmMFpI7QWGxFWwx43ntUR08uIz3WEZze+YJjAa+MOBMXGTXnTibTQyOjnzZ/oXFjOfs2dCuCTwYVBMXAV73OML+JEmCY3ZpU0zmfl0mtBo8s6fmRLRRsNKKCtMWFZLs6PzrfhpmVj2D6AlqD/l1FxQVFwEe9x4G01xZrZI3qH9xL0lblCz03/oNDEzWfNbvceNtdGg6PmMFZ9MaOV/uUGz241zCTejhVQ5u2owRcPbaApjSAtR66oGBM3VaGotICxC6eu4HemGorAyp1uBNu9mtJAq46DW3Z6ZcbTRoFirjhnxOQCnuTGTMVNLZdVs9v0MWo1mi3XyrPjsG5qr0SSspHIPQ2pIzWrPiePMuoaClv6lb2juzOSbCepqHW6JVYlm/CQTGhWfLWblWf7gBq3lARUGTbb0FuGqkzNUjwmNis89Zpo2VhYzGxkJb/p6lodsNbuqDxh18rzYHXsqPnnQvhFaLZH0sngegybb+oS62oJJGXlbljPUkPHJgTa28khQR9WSYQ/LwHHJ1ohM6UvGsmQqxNnnRMYnD5qokEqg3+GHmnQ5x8+hbDarnRBHOdCyXqGt9PhGM+3qg1ogZAR6sPpDdHz1JXGUc/JqxSO08iOe1RIN693eqQVCRiDUSfOUpoXo+OQwA+IOavjbPTKTLrtF0JaJozxoZHy2eMxWjtjUEnHH+73tR5YT2gxReSq8B3yR8cm5RwDFiU/i/Z6oSQrtAXGU+1Q0cosKuyaAo9oli1oiSbzf035kSaF9RRzlpp5kfKZ/4gYo6+ZKjd6B5oGanNDGnxBH+c/fI+OTtSoBWY1VgZLIwp72I0t3QwpBqxJH+dDI+OTcxGPOBVRwGtRcn/QaCBmBELRV4ij/Msj4DFf4uRoFjb0gxLUQlRRaydns5iW3UNQlX3CoeYbmvos7GDR8saEJRmdqUUf6mtPr8AzNlVowaPhC0NZOnUcF0OibxpxhzQc0l/JduoLdgOa86clrDekyLhNuKIA7CsJpjtX8QBMXorK1hszZk2hzcJqQ6BIgsnTrYgM9uzVyfcGG5nX2dKUmXRPShEa0OdjtbiNYgMku0BNvr691cpEIK8VlrILpCaCR5bsaMrfVStfuNqCRbQ72jRVD6T2ALHL8tjgFVTw6hvtZKGzMkl285wVHdvkqnx890k9DuhsrJrR3xGERtGuA7GgKUxtie+wc0MpHzIo9yd9Xi5fv6lF+FCh/BjcjS3cLz4BGtTkEzCIR7VJn1UzpmpqKxWLHIEYxZCuPOM8fSdRE2OxCVGcGqOWvVPlyWxMa2ebg5xzAVD2dmP3iDKB2GbGolVe+qQnuEYiwmdQuDWgA26s96TIOExrZ5uAtHYbbGOOAmfPVXUAtZkboyoee+GaxCJtRvh9Z0AC2T0OD4VUImmOnChRjqZXObBcwi8eRy1L6PHDVRVYzqK38wnkAlUds6c2HqqruYdBG86NfD5+LUAa0NfI4x2kR7WM8DmezFJo6Y5geaSBAhZ8B7gFbJf5pdPRT/ddRXPnXAZARyIBGtjnYM0E2oh3jzNoxh64j196fHsHGVmmDTAOM/3/++5UDm1xmM6CRFTu7kNKDE6aatM2grjSNv3cdV2prC2GjqZnT5ihBLf96n3X6wYgHjTWoZTe0PX1A6zFsFot1U5fahfuANpJ4nQf6DX7VI812ZQ9mr/7t9FpeHrOZY9op+QPWoBbR4nAamIozkMVAytbVNA8+M62TgmZzUqtk8BnglaxmM6FlyB+0WFPnNRjQUoBb7y3FrAsT3WvN/UlCv5lcoNkSjnK0Aoa0UT41acxmQCPbHNSGMjM6QXACaEcUsyu9OrjULl2hnWG5RArrfFTCxUwxTMQkSW1UCrOZ0MjVHIz4zOr5RqoXj9M+i6GSqq11XAe1MxzCmXVXr1KEI93oJ3LaJCUDNQMatZqDEZ9ZNKQB0cyQ0VJFbcN7eCJtGZ2PuHH41R2gZkIj2xys+VMArYigdbWI+/RJRNxZGnqtYhuQnDYJSZDoGtCoNofCyG9NaPSIhqaBVGpK09yhTY46vZbPAGoV/JjQbBLMBiY0ss2hOB8x4QhPPrSiFvGS3RIRmj9LVirCadOp4VMiZEL7jvEzlYL2kROdxjwAJoJrD9ktKAloszmrTXLalMtqZpeDbHNAEaUUSDkuXaAdaccei0/SbK/bREwKqEkDjVzNAZVyLukAye2FC7SO9tFrxT75moxRt2nTUuBTgQmtxPohmXXozTQRNE2rkQ925Io0Gxj/xdOmPNQsaKz0h7SaOajpKuJCNw2OtI2kD8XPCGyuOZolM0KbR8OEZcqCRrY5dDlHNb34tNSbohTR9jgNWbYqV6TZxNOmLVi8Nxubamh29mrYyGxodJtDFzGBRoypQBfF7KMW8cUMUEvTZvPotfwRDIP30ejsz8z/79uUBY1qc+hyrk8wbhFwoBU1bc/7ExBNbO1REptXs51dhHajQNPrdOE8HGh0mwOJTNUiHW58XmvXvpnB5sYnKka9mq09HdU1+2a4ZrOgcf63yAo0ol1wrNbxHZwmtjhpNq96Z0CLRtfvBwGN0eZAcqYdIEC1DhNaR9NESw7E2E5vRO3X9ail2TfsQfl2odFtDkMqRe2ajs/ehqZxH0znxWzkhOBFUYfWz4cOjdXmQGoSyRpczLFHWO1Y0yI39hnClvFNzQ5OpOkoezK7RWg/cl9C3c3biGiRi48WtDZApnXEj6X2QC3p02yv1qOkfh82NFabwxAJLbu7AT+GvXOxd3l53NFX94mffn4rZntDMRtanmt1OchNK5hy9O0C9NErxgLSTsvtUd4eqVGprkD/maag/TwkZja0GcGLmvQOlqzOrXNxsef68HM/2Iqeg3OWYrY+tGTNgkYtgcHFWrgMV10NyGIQl6HkmTswTnDGhsXMhsZsc1iiduJkd0FJtSF40LIvYvFiJvPp09nr0bzH+PwvbbQ3w0KGQxObm1oaqT+su+yvq8ERGMryXmlJEJx4eDoy6tPPXjzPOE6D3AOs7x0ofxiE1fzgQjqgg3OYdZQNzZEZnpZmqmul1a8wdER0Img3KdEJ3SCtZQRndIjMsPB0tDlOS2hKXaiuWlmvA9ofaFHyH/37rOJx6MdEZxvrt115ZnA9+8zQD+f44Zfj1vED49A+Pq4Z0Mq7fRScN4b2goI2fbt15/7i+iwu7A/jh/HTMg6tL2LUso8NaP3PnxWqn+aiX4cdnJlZ2tpeNR21M4/sEoLGfRK6D8VpaHk0nb5+DZOQPPgXfwl9Zuu3Wqmf0kWuH2qLStL8rBpjo0WW/0kF3q0GFyfn8zaor4H2zbQRffG1TY0RnOSzWAarfpBF9VzIWOtnQxtAflsJZz79mfnNBsXQvmk2RnBO3yqz09+n+9LvIP3IoR2FaIvnUlb0SSI+sFUqrrvGvkZNccZ/5S230WL3+xI6O31gQ9AeZwWfJOIHWtzDybf+zNOdR+CzoTU3+hIIUZTbjv2RFX7Qj2dmnnZ0NtQ9Vudx9rYvd1Cqm7ktLK76hVbxuN26Cf5WgJ3H/vUIVVG7EFp/Nwc82kzRH8UYCbDz2L/Oy0aaFuozPis+NqijG+rUhH5n9BcGrY/4rCT9fETg5rd0cA6v89i/jH3+KGm7aXz6Q6Yol/QsMMTOY/9CDwD7JVeHFYLww4sHhgzoiiwC71JwGtDKf4HReU5VbxCflUrvRp/duegw21A7j31rC0FDDZle1m9+W0nf+FEbmej0HQ1OJYOgmaNwqgas45lYuNbXgzbOLbPdeudxsOr+b6VcLq9geWWqlvTArVJJ9kcM6jSKavbpOxWcQN2r2Dd/fSAOAnCw9ObggsAG9BnE95HZBvPLZNBkrZe0bv0aCid7tclB/pGtN7O33twIQilTt/Prr/q8LfB/CaN9Z03AGzIAAAAASUVORK5CYII=;fontSize=11;" vertex="1" parent="1">
          <mxGeometry x="1670" y="1634.5" width="308" height="163" as="geometry" />
        </mxCell>
        <mxCell id="zQAnH2hgNNJ8GHYaH6ZK-35" value="Terminos y condiciones" style="shape=image;verticalLabelPosition=bottom;labelBackgroundColor=default;verticalAlign=top;aspect=fixed;imageAspect=0;image=https://escueladeprivacidad.co/wp-content/uploads/2020/06/comercio-elec3-980x614-1.png;" vertex="1" parent="1">
          <mxGeometry x="1205.02" y="1630" width="414.98" height="260" as="geometry" />
        </mxCell>
        <mxCell id="zQAnH2hgNNJ8GHYaH6ZK-36" value="Contrato de Propiedad Intelectual" style="shape=image;verticalLabelPosition=bottom;labelBackgroundColor=default;verticalAlign=top;aspect=fixed;imageAspect=0;image=https://www.gerencie.com/wp-content/uploads/derechos-autor-patrimoniales-morales.png;" vertex="1" parent="1">
          <mxGeometry x="2040" y="1630" width="400" height="200" as="geometry" />
        </mxCell>
        <mxCell id="zQAnH2hgNNJ8GHYaH6ZK-37" value="Licencias de terceros" style="shape=image;verticalLabelPosition=bottom;labelBackgroundColor=default;verticalAlign=top;aspect=fixed;imageAspect=0;image=https://cdn-icons-png.flaticon.com/512/1728/1728431.png;" vertex="1" parent="1">
          <mxGeometry x="2489" y="1590" width="252" height="252" as="geometry" />
        </mxCell>
        <mxCell id="zQAnH2hgNNJ8GHYaH6ZK-38" value="Documentacion" style="shape=image;verticalLabelPosition=bottom;labelBackgroundColor=default;verticalAlign=top;aspect=fixed;imageAspect=0;image=data:image/png,iVBORw0KGgoAAAANSUhEUgAAAOEAAADhCAMAAAAJbSJIAAABJlBMVEX/////ulcAAADq9v9gt/8AZpQlxzv/v1nu+v97e3uGYi7w/P+wgDxINRjz//9iu//mp06ttr2aoqhCRkihqa85PT65wsoDBwvR3ORkvv9paWkKFB3Y4uuFjJFNUlWVnKJXPx4iIiJCfa4mzj0AYY1iYmLCy9MSYh0kwzoeozDX19cADhSXl5cAVXsARGPv7+/0slPz8/PU1NQAMEUATnEXfSUUbyHBwcGkpKQAKDokRF9Tntw4apS6urparPAuV3oAOlOCgoIhsTQbkSsTZx8xMTFLkMgAGycTIzEZGRkeOU9OlM8vIhA8KxQsLCzFj0PYnUkdFQoQWBoKNhAGIAkEFwd6WSodmy6leDg1ZIwXLD5qTSQIKg0MQhMZhygiuDcOSxYjGgx3sqjlAAANwklEQVR4nO2da0PTPhuHXWFsYwhDQMZRYGOMg7ApICpnBUFFUEQUUPT7f4l/2xyatEmapM1anqe/V7i1Wy7v5D4kWfroUaZMmTJlypQpU6YXBytrSbfBqFYsW68ifUS7HVNbjGjHcrWl/wkv5i1rOr294IUFdaD5Aa+m3duHYm1VjFqzsOZ17t86RbdH6+fG1J71CK0R1dG0tkLcnVIjjlikZpdU7l06oG62lG7ulMYtn15I3+q4F1pavdywkBH268uomTtyd74a8fOl0ohbsGWv8/n6B9TMlfD72ltHJNjE9jH4o2S+yWp6BVv4Ie/oNWpwWDvbK6R3sk7mdsfG3oC/UxYTl1Ab6y5h/iX697TorjXavZwcDwx0dw98krZ/B7U2Chv5PA+1ipo9y7XFEu2a3nwas/lsjd2AFzoJEKY2chXreax11PJRtkuF2QvS3lvIZxsRjsQIqV/sQr5+NU/oOW49w6XuUO7F2t4dQHwO4oT74mnnQXgqwXbu5ynVJxCAb0i1Vyi8ibluks8mnANvpCZ1Q+19nfeL6VJ97uVmjsZzBSJqWlI3WDDBOEELu1ScovjdyzGDr3tgG7wrnxSZFIoTy3UGYX4foYBEPOBeWHw24S54fzxpOEe4YGICElHDTsN2qOhu/dodY/I5AWMP3ZO42sgnPmcDEi519AuJd7K9O8bBc4z4Njh+ExLqdes8QNulLlsB3djuk8/nGBGmbolP2SC3sc8HtBFf+/g+fmIPP9KIKUndUJx4KQLMP6cJiexFhPgRXJ0sIIoTwUBIaP0DxSdwLzRhGlI3VDBNCPhW6UG4Lcnn6MS94yhBQHEgdAfgPoV3wspe+EacA3dJzhMYUDtQMPmH30uK7yMzexEp6dRtCLacEyfWaffyhpO9CDSWcOrGLJh47mUPFUcDYwrqBjcnNOuGJ9ZYw2+VwpvY7kbuZeD444SC4DiYDWrEuIslJtZC3AuZvaAIEIcMJ+X0xJrQvZDZ2cBNfIRmEblx4rnYvQzECGgUMTixxnYvgexsYDTYzlQioiqIAqyvTpDfvszKXmImNIaICiYyTtT3qcYH5pYowqnBSBo2jciYWKvT7uWGl71Awqf9xQgqdxm2YrBg8ruXT9zkGhEWu6Jo0mxHDRRMAfciyM4MEMaOiHYioDgRKI6E2acJwpgRfStMdHYWXhzFSvhs1gDiGh0nKEA6e+kA4eCgAURfwUSMwDfhc0uxEzYGR+NG9BdMmHBPPPxMEcaOiAomHCf2EZ/s3EvchI14O2qwYKrDHiqYuzZM2Bg8jQ+RVTDBVOat7PxE/ISNQSsuRGbBBJck9hIkjM2Ka+hz6IIJ5mu7CRLGNRYZOxEII25LjsQAYbHcL60ihzAeK7IKJjJgaNqwXC1Ny2r8aZlDGMdY5OxEyOMtJXNyI9FHWKxaKhouU4TDjUZsVkRxgrXCBIx4omXDcmAzo1CnyIggdxxvEIgondRDFO1EQLnpsU5OU6QX9UOF+jbMrcafYT2ZQtfoIKKCaYK5AAMXeD/qEJanLBUd9cPbBkVXqSOinQijnBUmmLp9kkH0e5rJIXYr2apib3okukx1rarNnFgjjQjefqNDWOwafCar4UkvxjREhKqbG8J3IiikbsGIXyxLi0gThP1UsZsib8deYSKNuCcR9ePJaRzEKr9/qxFK7USQT91iI+wqFp+WpkcoHY3MqhNK7URAqduvcCPGR2gz9pfpF6qTU8qEMjsRHIGovxxuxDgJA9IgDN+JACWduqWMsM0umFgCazLhqVvKCDkFE0uyqVuk6okjHEWUCcU7EXwCl56E+ZpAxK+WhqJqCmUCqoSinQhBSaZu/sxbmJvIahYiKhIKdiKwJDnrFq164ulZWYOQvxOBI7nULWL1xFFJgxDFCV49wTViSOoWrXriaVC9l+KJNWlAL3UTGjHgS5WqJ47GNXxp6NZthlDqpkRY7Hr6JKoaGtECzTtJxQksmVm3SNVTWFGlQAgBxTubA4Kp27b5NWCOFAhPtWwIU7fRh0CIf3alZkWYuony77QQ4oEoHw5dgVm3m4dAiDMa64NCvJDIv9NDiIt7a1khYoTPuqWI0DvBQ6Z4QoL5Nz91Y1RP0aVbPa3hWVd5lxqaugUifmM8cvVU0q2eHrVxRiVXQDkKS92MVE+netWTI1zbSJZQ4bNuKaqegHBglHapIVOn6amekHDUkHWpIalbaqonT6/wx0giihdMA740DiOWdD0N0BLe3CwXNdDU6dgALY4vLTaGo6qqGy2Q8HkQYS61Xl9ftQWuvZmjdbzr7vtOS/XkEz79R5SIr/t/COvXjfPD5jTlNKTwEQjcqLE+wcai9at7LKWEnkvlLOWH2Q/f/nYipYRil8r6MTpPabWh7VLxSXEBl6oCCJVGQm+HdyARJ7ro2WOOPj8AQm/Lgs+l4t3sP1sFrlqVvjMmYbEsarOU9NeeAsJzG6RLrcOMYKZVyAnUqlR6GYTlxvxIVJWq0XIaUqxEHJrwVoQHEFs/MWEjLdVTQIy5DRgIwwBdK/ah28fR9q14qqepCLWFX97cBkSEVX2fsItixHOMCP7XU1A9BbTkc6mwk4bzMRHTUD0F5EvEAeGthAn9iOD/PQXVU1A4EXdcKphd65UjpBDnXS9fbkT7OamtKgo4iHBo62B8fn58ZeuV7uk9uGvZLvWlEqGDeIERuxzEKD8mhUKBcXIy0OlPD3a0KIlEXM2GAPErhRiXiuXG1Bc/oQNZ0jlMCyfiy68VCSkrThfjQyx38b3WtMbRIV4irkpIWXEoLisWi8NBMELz6kehtql9yCqEFOJ0PIjlaqhP1jjGhzzZWInQRfwXpxX76R3Dd9/eb25sbC78pl7VOPit5N2tRugionpqJDpiPzkCF66bPTWgnubhxnfvHeXjxYlEXJXQQawgxC+TEQuoovdfffmup9ZDqlZb/IbfPVUfjDu6hK4VUcE4W+2Px4Lf/XwA8vAvuoB/3C9XL3QJczkC0RruL2uH+/5nuH82GXwu4zt0yRdlwkdrs7qENmIFIx49aVQ1haPEOw6fg3h/CS/SOHHqQJvQQXxsxaZFPqAj1FPVT2Es6RM6g3EmLsBDMaCHqJzCRSF0IH/EAxhiQVtN2FGVj7eLSJgrnAvaLS3BGMS6h9eqJjdRCXOFVi+/5ZJaEAPaob/medTZThM6jH23nwXtD9XVvRjwz+Xdt6bdT2HsVzRiDIQ2o97tBTh390dowtqmc81v+69DcLnwSQaGCHUFgs13sQU3AdehbUT4p5o7TZKwImFCBGgtekaceiiEBTiH3pQBvHKuaoKgOPJgCEG68FdgQgwIAmYTulOlBDxJwtBO6gPsacKYqPTEhQQJ4TDkhwo/oB31QdmvdPRpcoQwG7riDsMgYM/9e/ffSpPiCRKCaPhXAbDnfsN9QSk3TZAQuNJvsPm1+8NQwJ574GqUErcECUE+i3JSG+iSKKGYgD3Na/el0QdCCAqv9y5ADXQ/jMgG7GkuPihCyoaw+oOIHMCHZsNechxCwisXkQf40MYh9KVkLwVW5AIiX6qUtiUeD+9APKwteIhcQBQPlWbcEsxp4CIdzGkw4tUCF7DnHqTeShNuyeelaI7GsyIXEOWlSlV+koRnpDO1tRAC+PBqC1gfYgDKiqz5xXswU6P20JMka/wLuptSiMwJ1EPwntqzmBOdpwEzdJcEzIIIsAlDitqqfpKEqJteE+noAh+w5xAsl6pNYiRrQ1gD3xElohMM79iATRAMVZ+ulCghTL6tTYLIX0V5WoQ9WA0wWUJkRImFGduEcElfdX0tWcICWvMQz+u7gstrqssWCRPmcl+DQ5GpGhyE6k82TZgQL85d3osXLxCgWixMASGOGLAy5AltOdF4hlvShLnCLUpj/nANeHiHrtF40nfihGgFytZvpkutNXG9qPVQ0xQQ5rzfqnw7rNX8fBtX+G2t57elgTBH7Oi4/HPvbGtz2JyNbdfeni/dx9KmgrBAbQW4W9j8c714/W7jPbU5cURjDKaGUGZHh3qYSBVhrtC6FfKd6j9CkUkYtvNAc2eC+DMv+PurZqM8SZBFWOi7nRHqVuZHRMqIhQu2HYeiPceUQVj4yfwiSj9NdOtCodIXNGTUx14zCFtfA98SVMsAoQuZu+jrnflsN+Hf4zNjhBKAVsUMoQvp/mjVVq8pwpzErtEz0863UkE/WjVAWKiI2IAuHjRhrpA77xPqPGc8fpolRGOBL9N85gmTV0aYEWaEySsjzAgzwuSVEWaE//eEYYm3MXWKsHA+wzsRy6hmiAkusxWwxEyUIXkTXEYJW/9EjTCrzthQaibKkCodIZSZiTKks8700sKFzISpEV10ype2QmaiDOm81SFfmkssIBIt+J/PaVrxEU6lmBDsetNeGoUCh2JJntfWOTmELbAOpX5OBC14gEvSRH65NgRNi7Z6iB+la3wdQlEOIFzb19uBQQgc+jWTPkLYSTX2efkEj1I6TxWi00nhcQRRHY33hLZKmhAr3oFpkTspfgjGWYoQK95ZYhqHCgWEHtttd9SUMLYqrT6UGmtuhKKFz4mcORecBt055YgdGVE20hDyDgP+evujN2n9mPFKm8hntSKRBwymSYrntIhUCv+2BBSbBR1thX9fxxXTGERaS5sZx2PxojTjSvjXdkwrMQR6JuTO1kopaa1s7cRvvkyZMmXKlClTphTqP/FQ4Sb4Jo5xAAAAAElFTkSuQmCC;" vertex="1" parent="1">
          <mxGeometry x="2790" y="1600" width="225" height="225" as="geometry" />
        </mxCell>
        <mxCell id="zQAnH2hgNNJ8GHYaH6ZK-39" value="Mantenimiento y soporte" style="shape=image;verticalLabelPosition=bottom;labelBackgroundColor=default;verticalAlign=top;aspect=fixed;imageAspect=0;image=data:image/png,iVBORw0KGgoAAAANSUhEUgAAAQ0AAAC7CAMAAABIKDvmAAABp1BMVEX///83R08AmKrYl3NDQUAmMjjr6+tFWmQiNkDQ1dgAmKsAm62tY1n8/PzdmnUoO0Swtbg+PDvq6ur19fXh5eZATlQAlany8vI4NjXHx8fAxMagpahBUlvXk20HkqJhX18cKzIzMC+Yl5fPz8/b29vZmne0gmeBsLlOTUyqqalWVVS9vLwvLCvMkG/BiWvVj2cvSVUKf46EsrMVJi5/fX1dXFt4d3aJiIiJaVf57+rkuaIYYGyacl1Wj5qfnp5eZmpnVUx5X1LQrZp7iI4AJjLKvrfTpo7sz7/259/ep4nm8eoenJ4YanYeTFWzXlSPd2u6c2AneXphlY9nbXEAGyOjdFmzfF3Tv7W+ppmLl51sfYVcbHTc7e9Jq7ms0thFODXiianqkaTB3eGhcHTTjoGklo4hHRtlr7rT49xhhIdisa0AdYYxWlOUyL8bj4hWY12nzL9Ep6sxn5WYxbNZrqo0kIQ8Uz8qaWOFl5A2eGjBmHmIinuslHygyMF+vbXl1MsqTUqvUUV6bmgATVlmkH2naVmNf2hudWR/mpMLLjGnhW8RRES538477OIaAAAaDElEQVR4nO1dj18ax7ZXwEVZF1gWWRB35ZcURFCuP1Ch/og2/kJjYm2qadJ3+9rGhtcmtr23uU2a5N683tuX5o9+M7M7u7PLLLCAgdR+P60KBNj5cs73nDNzZhgYeK+Ri7sUZHp9Jf2AP9kgEfmTDQK5sMpGuNdX0lMkcvBnJKOS4eKXRHCbSSR7fF09QWomvJRMLfC8S6Mjk01lM/HFXl9ZD8At8S4+HNa5QM4SBm4zk+v1tb17aKEEGgVPWIiLnxZ6fXHvGuK0Nn5+ZnqhtOSKa3eEE72+uneNRFgbeykI7+Aii9pdrlSvL+/dIqh7hqYSwhK+M7zQy2t791jSkgy/fic3iemIR3p3aT1ALqOIKG+wAtVi+PhCoFcX1htwWTTyGaNClHgUU66ZbECgkbuM96GwG7+OyWgWSAc/abwvBdmYuWZugoDYWDLel5q5rmwoGYfxvmS8XkuuBZKodo0HDXcihvgFsUfX1CswCaUyCa+R96rpenjxmtVt01rNRroFTtf5a1bGJnEuyk/rvrKm3TnJ9fDaegCtJuEzOaWAD5S0qo2/Xok5iKX6dEZ8MpHL+UsZnYxrVrQNkCW9iw/H4+QkWDjY/Ol/MAgwfvCmmUB02xhnrglyM+FMIjEdJrlYWlsK8/w1k1AFk3DSCyQeGhnTUDwj09crumKoGacmIGp9wl1L08D4c+WRBF5K4P9kYwCqKa/gTzYAmCRGr6+k6+Agen0RfQGOEwRABfwlXHdGDDYBGendpfQedf7BidfWPqhaIVy3CT0VFlbAXUs6LF3iOtLRQB+uIR2N1LL7oUUMpgAiOYBs9n1L2BpnHjAPtTnR5QrDLD6MMFPq5NKuAk3iaANf4SKJhN/vzybG7QTjDDll2HdsNIOlcQhrfmAZEYhcMtUyIRnX+8yG2TiS0fX19URugIlms9Fo1B/BlARb4+OE7B5879gYMLDhH5yfj8Vi8/NDMYyhsYVoDhHS0tr8NMnG+7cKRbiKeDYUG6oDYGRwPQvpSDaPQCnDJDufVe/m/O/JbCqnDVE8W6eQoTKyngX2kbTQ3CQeKzNpaj4uIYNKLc1k+iq1UU2Aw781i9CFIxr92IIMyMd8CdCRY2ivzU3OTKLUIusykgHo4BPJJFzw76eWW44JBAT1N+RBCAS0cWE2AtETK9NAmD+B3kJzllwcrk9m1zJhVz3gQh363T+pmBBgGDhqMcAE0L4KhgngcWE2/JHBRmQA84B0UBp70LJcfYu+CX0kqRyjsABYQSxAVvDFYTaiyYamAa0jQTWOLM0kKEaSrXtmryAwSv4kIhMBYsHo4qn+bs5GbAxIR12mLtSZBDCTOMVSZvpKSOnQVDQ64mvCxtAQCLR17r9mMo1wfGkN1mwLYdMD70Ong1bGjo9YBljNOGBcMbl/wDRkVwLrs7hmCjHvQXu6VoGI0ei8BQnaH+uADZO9lwwWEJ4kZTa1ZHiQX6QG6H6CPjh/khpUYpubSooOMJg0J+gpo2VMGkWWM9LRT0kHFUTVxkX9evoVg6UKzMqHNgre/PJyJV0Bf8/XyegS6Qx8pi6KGpLTMN/vxkEYvuAvqV4Ri2VOKxsIm2mv0+n1evPpSmYoljRlHMk4+dlTNjURtsPHS/1OhrGkT0XXYQHLZ06dXmehsry8uVwAZEDk0+n06amZDaZEKCW1gtf7KjN9kI02zQCNEzniSO40nfciCoBBOFUuAAAb6U/MbECl1MwjTOtAx5vC+P6o25rTYby56/VqFOh/OZ0FSMdHyYh/xPSEHB7vJK2I4VRlIfeE9TOME+fiXcmbz2vuUdD4AK7yacS/5QbYojTjW051qY/G+33rAm5fID/roP9GftPFpxEJeSCqm7pxfBrJuhEm3CPk66hSatE6me03NujOIkCIIvyh3Rc8i9zY2J6fr3hPAR95F4i0BZUM6UbE78aYIMeG2aCXZWqrVP+wQQOe9zG2L2yNR25UNip5b74CrcMLtBO7ylQkck9n45xgWJ3+a2wbfVTC1q3SWzRwjJ9FIjeQihaWCQFVTSM6obHhnhvXn6WyYVGVYVWZpD7aIxA9TsAaLPqdznKADQnGkvSmEmR1Oj5KbulkuCfO9Gepnz4/TYuhAs5GlfM7+gao6Qu1O1kG3fMIYqOQ9laQp+SXsWoAR0neI9hw39OelMIrStQaVZ9FD2ey71dHkcJGYXs7vwlV1Lu5ndHZiNDZyM5oe1lOKC+5QBQqcVf/1/QEEBveCogpqDxxumJ8vrFtRMi+/HD9qknEuMBypYGFYwKRbKJUSqzlgt2oiEBIAbaR3t4+3UhDCjZI20iek2ycKxcwbZzQMY82kDHUsFe5FPnZB/eLn8MZSDgRGZ9eyHZMiB+o6F3Jubzh3ECCkdZ1w/lR5IyIKRNqop0zzudkjHQETGRd3T6fB/flkEf+XL8SPhxf6tAvQfIVuYsiyUbeFFJAhM2RtoGZXzDS4SLLkZzBMq5wsueBHAo5AMYM3PPxDstmYBwfoZx8I2/KN6Cr6MYxpw2acRkRn84ps2NMZDFueuyKQuxnD0MeB0LZ9IY8X+rkPQX/eGRKYSNtYgMYR2RLpWMuqj/FbxozH85MLiwsTGbMawhXlY1+wYYULhxstW7ZIrzYiXALyXHIRoHPuJwUOs6AYgBGouRTFusXVIynQOF7Oxy1Bb6QHRhskfKunc3UB/egbaSdGyAjLRQMdNyNJHPRs7Ooke5ki2ttVzPB8SDk0MHS3nimozfekZB+bhTSm9vLRh3du5FKpeoiF65E6OuwfHwG+gw/3ck1WcJAhoN9Rf0cOmke2ZXQ4Jc3h4b/668EGXuRm5KTltSLi2i36PQizT34UiqQnY67wleShhJuYiEc6CI6CC0rU2j0wE/++69fYtuQpm7CCmaKWuJEwGCnc6KYXKpTTqWxQ8zyJ1exRC/KHiMbRbp5ujp48z1sDt68E5QroML3TgEFvQHDLL3uWvo6oTwQMS426oe7BK8k8bpv8BMAmcpGRyeU7UiYjvRy3pse8w1+lfzopiRZsxHQdDWYMVzG1Z5q84WZDAc7Rqejg8CyoosFcJTpwUHfkmYuTWtysma94l2jAmsmw8GWYRMzRb6o8/mtYVXS+XAuzs1Na4mp1PRFE+F3xsaDOtMIhYolfy4xWU9IvP24sjJLsJFffpPHKuKcXWn23Ow7Y4O7b+ZC/kBVJy43bW4e6WAicoc0DnWJyXtqiw0lH73KyT9TdHWE7n+mPygkzAVDB1HW4CsKGWhucHa32TPXvp5BVrEIcHKlU6EPjY4Semj0YlP91EkBzZno8OY30byP1JQNMRgMADAiwNXuNHUYc4375jcrmaZeOnmv3SmND5BvVFwxtAYp7XTyml3FZ6ZMo36qy1hOhjubC9vZm52FmZc3vTy0HVNWmfqIjQcG2Qh9oNybWnC58JxXxNhY1GlpwO3e2tjYGIrF5tWFWWkv0Dc9sMb4KisKmnPB4w1VjRANxtGF6ZWledjvNKTOhElTAaZv2nM+INkI3Uf3BdSzpGeUAFIysNGSjKIlJ6sFp8nY0BC/qa7FIjIC/bJiZggpoYfoPtxIxC+h8fjjvI7WapVEMpnM5ejEcS/z+TzubpGmUgzERbfG0xkeyiQU2dB3TqFom5ye1LHY0vKFIi5+6kfOBKaI+Y0AIoNJ3ekLPgSRhJJraB2KGXSbEwxo9oLgf1EpP3Pwl6nq5sQAo+UdyE0gxG9kx6P9Lg+tS8gaPcUWmGCAC6gJq7CWFLMlYxASxxnmpYTJ2FXJyNVYR4h9242L7zpEVUW/tp+Gc+KAkNIdJJJlBkoGa7o4E5nATclABhP8H1hHe+RvO7/2K0AS7k4Ox9sIpozWYR7EJATJl9mXARsMKuB0Mpjz75SEWH7R4YVfDQKJpZNSG0soWFWSiTUA9QXW9BfiLosJwEaAiCbAT7LV79XyINSfdLTQEkqD6iO5LNrataZIBqP3br0IfQfZgDqqW8bI40vMhqNPnaUtqKaRwr6xpiSZC1h/3obY24iNl9LUS0yGsO5nNTb+UHQoJ/foQgH/CmhkXMieg9oaZEO8qVkGiDpPQgdEcfBHokOAZ0poN+H+PW1FW7gMOQ6qWcgGE8BkMKlB5seQ50CfV5D7M9C2Bc6wzAH3hZewAr0Ag2bLOZExYCm7z3o8uquAQNsXaWlXwJELIQY23oKKCLIBvSOS1PxkXXwiO0jbcIQO3q82P0soAyfYgLeUUL0Px+xAbIj+kQSuTwZT4rch+AhZPP7Yk4vvOhQ2BDxfoeydFiAdUDQcBx62PC4G1nKiP6KYxnpUFIGXABcy0PHHUFLVKdTqT1T0U4D5xgtABgvZiIglIB2BM0SGfz3AXKA5BeMSV0fSIQQDqZEugjgfwCYbWtc9N8BhbrLANN7KDiQObDl5AnVUjELjCMaAfjyBbJAyCm8edDA5mPx4uKuYm5toczaKMr8fyKJMA7MxpgSV1ILAiAswFXuB2DgwTt2HHrXPhjjYXUy4jVtnWgfINzhRDwmppDiQEAaEA0SGDNnwKxFWXBsHfgJrFsUqWIOOAl950jYbwr1uszHRbl+TIAqCqPYUcLlIKpvNKaIB2QCf+ThON4ILwTHoLRey4hom4/ActD/5c+brLh2GzRE26YD/K/kX2vQLROOJMuDbLBjjhZaRJ06gn4g/qBOzJjY6CbP+brPhdtvkYMUgGCobyg0kGg629jePI/RQT0KD6yjnUKepTTIK6WjbV1LD3WZjzlY+uOp0OveI5dQkA0/2U7yNO1BC6CtASuhbIi9HZFxgmzDpBszQ2/aVLrMx4Z6zI6MvYW+G5FzVWg+AdMChor9fKGQU/w4/7wvGBL1FwOwqHcSV3sqo2pohTVFW258onsCWf4KyETCRockGhY3240q06zK6ZZ8Np3N21dyZcqF+9vIQENHQj2bTEC8xB/XC0X5cGe+6jN6zIRwrWiOC5NwxPG//EpvGDBztL2Y2LlhtDrDeNtqeJk11lwwoHHaSc6JPRZra2dXjy4+qI8i+IViJvDWz8QuWDbZIcZW265WxrrMx3vxNNazoi4mAD2lvdWd3BdYsL0IeANidHPs7ZKPOUV5osiEX612l7aSjyzI6ZjP/2iE7/iAhs7Ozzqm9Z8+ePr2UHSHPcOwfoG7/XjSzoduDXKyLsZCO9qYFuy6j6pa7VlHf4qb0M0mS1+v9+dlGuOjxhF6Y2bjQOwTkMo2NNoU02X0ZtVXVG3ylnhRn/vkdWX5gZuMXYuBVmWocbQlpcKK7bEwYjzxojl2qcRCMSFPPb+ya2HhEdI8UyxThcHjYdoSUW+86GzbL2N1G1qESMnvzJUlGgAwj7Gu5nox2hXSrp/kXcJW9ZmRASDAA02QDlnW3KTEWZvNtsNH9MvZe8zfVwO04m3iKTsjUKjaQt8YWvCpNOByhyzbY6H4Z6259M8zuXqtcKAaiOAxRpCDjoApHe6W92PX8a6LlMnbHDheYD5HMvVRXqd8cAuC5tD9lzJ23MER0vmXLbLQoo9zqbPPx1/ExO7UjPjTaAkg5umYcLeRf6mGfrSlMq/nXii0vIQm5eacos2RUoSZg7aVgLZSx+PjCluhocTawbTKc0jOQjlcBIdg/2No/qLbRztpboLmMaqc5tsZGK2Vswxy0MWbh+oqnWK0WHSoh8iuqcLQ1Kdh0fPqpuK0YR0tlrIEMr/kIhSamgYbuYVmNEM9runC0k583l1FbbIAyNtrw/bj9/QvCTbzO9H/yDUZvxpE2co9HLpaRy9SqdONw2DeO5jJqiw0ooxahbf/tkx8ePbx/efAzoRnpx7VbNozj+N944J4ikAxWrpXLRfmVo1vGEWldRlshA8qoxWzgRQjAEfI81bci5Tdr8mMbZBRG72hzgEVFQ4HHHA7pmmpUDtthJdDCCO2EWCAcQW5ld/flzs7q6t7e3hSCUzo++icycraoOYb39FBmy8TNZi6TH61okaSqDRlYSLVcpRJi3zhaKup9vlYLmgm3G5q+hGAw8qOnkI3QkhcbxkbVw9Yq2DS8ywVnE4wSplEjB886iq/LRUcdH/aNo+tlrPtfdNsfvQWTpiI+/PB0sAg+Ve3cKu9ypZnLHOum4Sibxg34KB8CAzEbh92co/tl7Do9mzgelWGuhNgAhlEGI/C8xmeoeisbzcgojB5h0/DIZcrOdbnsK5v48BzYZGOk+2vTFiZ/9L8gcSpW4LHTy6+LLKRmE5NRcDUXDWAaKhtsmTrHwzqqZj7sViuMu7tsAOFI0z/mY2To5c3TjaGaB/4p+zQKeO05VqyM6qbBFimmofJRO6yS+hH63qZxnHSdDYsMIv8riipyUS5DywCfMD6Mx7u5of2jUzoZx6Ojp7ppFC3YAI+FiuUiaRw2J8G63tTinrSQgGPlw2WVz5YtYu/wFrbxP/Eu022jAEzjN6waxUMrLlT7INzFbpDt/mqs28LYj/+NA+QwZOO1FkUy+C/v8imVSSAao7/ipJw9tDYN5R94irp52Ayyge6zYT69TRuTOiA0HhmfkemtuDQx3aA/E5ABNVgxDfnQIhMn7UOTWZtBVuy+jL5p7CogmJRZtqod4eXSJNQishwbTKNca2waJlzaM44u518TlvmX8/iZOg7ZJzuGsWmcbmh+skl9IiTjCD8VPNcWGXaX7C3LWOo3usAjPRvTAfIvCzYKv2JL9hXlzzEHLpyCFXjqs6BokKZhVcBbwOZKU9Ji/ov67UdQFpoYh7WMOo/+prpKtVzDjlLQUrANenI+ajSNhgGFAo/DlqsIFmxQTWOiqWmg/MuCjdEFdVDFw7I6dK1a86Yz1OdAPxkd1UyjatM0bO9rshgejQxfc9NoKKMVGUeVQxxLK41No4DIIEyDmpQ3gs02QbqMtusoqIy1sI1jPJPHVocVNvSzMvNU1UCiMapNAFpP+zWAvdKNXsa2qaGIjfU8PVTmj56pw5KHXV548l/ltpadU01DIUNL21j7pmG314dexrbrKI3yL+doBX/Kh+XpTwqfPC7+hueEXBoZxDS6IhraLE9bpmEzARNoQ6I6SgsaOtiojPWO/ooTsGpNrlVrIc9zVUzT+nmqlXTeKUnwpiIao7c0CtoxDRBjba3J0ppa2neUBmUsEA6cYMuHLAvnMjEbWrnm3dzeDv/nt6fPCrOqZbRQyjeGvVqFUsa2r6GDDWYDgeWf4vH4lI/5uTm0LG8PDcWqrMfjKf5r9MhoGvROnubGYSsdpZSxVNNozVEUGaWzkdcyBzVxUBcUtNDiTaMvakNZmucycPfL0aMjfW64HdWAbPxghw1KU3H7GjqIXMViNjA/evSN5irwp0eGR71J+Ts/K7aRd8F3mkctKqFHohhIffoGD4qttmcaNic56svYjhylUf41OoqXy9Rg6ZGfS9Jz2aGw4d2cB1z8X5RVBoEOE/iQvmxghw17+VfdamwHGjoIV2OhcEjSrDRl7kzQMykQVZQVZg/4zyMj+rynsdj870+5fdS/E3oCyVjTDKLYpmk4HA9tsWEuY6mm0bKjIOGQnKs7K5y5BdJ7rE3beMgAwdY+z4NkrDC//Rg2BymdbqEvABvJn1i8jNY2GTbZMJexHWkoYsN9Q910YuqePiZCBLkO4Ivx6Xxl8JsLlBp8i9iAu/vE6NjhTzVZdtCXWluDTU9hTLbRoWkQe2M5U0coYONXXLnVtPlNtgbU4uNXUZwXPFJ2f8ItXGIgkistvnpdvQ0ZYZvNAdLZsDdVLGzduzehg8rGIPweBogxhMExHeTf6Pa98/Mk1TRgiNUipq6KbOzj35/qSYHwvRJg99VNBwBJf2Iy87vSsMHatZN2emn19HWMrqGwUQX8o5eSJJHLHoWKYbySc0d7JaFul0GezKbU9CEUur31hEyeBdTYRu78hJQwgeCH1fLh4atyrSiHbHDS2dkcKdrXOgNHmVM7Y1/urd7Usitp72cjGXvaLrWVnbqQgopSZVaPhUECgn301pQ5qyGlbi9G4NLDOmS5CDk5LFcBKXBptwktnlAHO6gBSjQ2jF3T+DMHhrBqMgyNi1UKF0qJ/iEcVK18OIdE5nHU3HGrbHkM/VC3M+VSXZ4C45eLNUQKYgW3tpjh8YRk9kVHZHDU7z8HjkL0t62qx9TtcGRLsCStYoPf3ZulcCHNHn959yX3Vq7OEZrrG/ZFDSfzv9DTDSMbhu0HCuRisYr85xViploDKCqoVm/f+cvbDs+oJb7i2mAabqL3cXdqdlbaA3awS7QE606yuyfVcyHN7gEmBuBXTNXVRT4f+VWvD1Xtq2eD4gmsLquAmdsAgAWI7w7aP3JBxwnNNiZMe9aE3V00dL2/D5GDYD51W3l4alXZ1hjYGqTNLvkGo/j4jn3FIWTzrmBmpFn+5fGQbhKyl3RhcAQGgjQ/ARpq7qcHYY8ZELR0YkqLJNzqbF0TqHcKbgEGry5EwbjpCzg+nKPsH8BNj5Q90k/qvm/AErDlrhX55IJmpMYJRLYsNNQdNWIOwA+/VS/9Zv1kfcG/BeA/A3heeJN+k3fmlbNzEX7+KgEf3jo7V7iwWM/ybfnhK599iHDHb8bTOwb8hY4PdIxoY2xTPbgxC0cxbS7QxzAGt3W4YeE3EZ0AFH01OTcxd+sW+DGZBmSt31w6Pz9XvMAPFULxCws6+uZcbgURi2RjwtQ/Th+NaaRo+wvK59ehSEb13sL3hI4lumm4zRvW6KOxRmpg4GxYb7S0Wvv12dsYd8UQaKYBZzbOz86ASwPnBdqSHBlJkeWsrwWkBqLDZDuyJR2N+9TfLfxWGuqeMIL8TtI6uaNATBk7cC3bJIb75hD7gYF1C0dpgBZ3fW61uKPQ1/ZZSF1HEOShMR3zCLGGZNRLCh0TrTbNuPtGSMVUKjWS1BBBADIxUpekEGjNtFtuIXo3Ovr/kSPjiR+vXt0AAAAASUVORK5CYII=;" vertex="1" parent="1">
          <mxGeometry x="3080" y="1622.5" width="269" height="187" as="geometry" />
        </mxCell>
        <mxCell id="zQAnH2hgNNJ8GHYaH6ZK-40" value="Registro de Incidencias y Soporte" style="shape=image;verticalLabelPosition=bottom;labelBackgroundColor=default;verticalAlign=top;aspect=fixed;imageAspect=0;image=https://www.manageengine.com/products/service-desk/it-incident-management/images/guide-for-it-incident-management-guide.png;" vertex="1" parent="1">
          <mxGeometry x="2500" y="1880" width="450.9" height="250" as="geometry" />
        </mxCell>
        <mxCell id="zQAnH2hgNNJ8GHYaH6ZK-41" value="Control de calidad" style="shape=image;verticalLabelPosition=bottom;labelBackgroundColor=default;verticalAlign=top;aspect=fixed;imageAspect=0;image=https://www.clarifruit.com/wp-content/uploads/2021/01/Depositphotos_277857036_xl-2015-scaled.jpg;" vertex="1" parent="1">
          <mxGeometry x="2100" y="1890" width="375" height="240" as="geometry" />
        </mxCell>
      </root>
    </mxGraphModel>
  </diagram>
</mxfile>
